<svg xmlns="http://www.w3.org/2000/svg" width="243.6" height="204.4" viewBox="0 0 243.6 204.4"><title>P&amp;apos;emek$1</title><polygon points="80.39 134.4 80.39 134.4 80.39 134.4 80.39 134.4" style="fill:#fff"/><polyline points="80.39 134.4 80.39 134.4 80.39 134.4 80.39 134.4" style="fill:#333"/><path d="M28,197.34A20.72,20.72,0,0,1,7.06,176.4a21.06,21.06,0,0,1,14-19.76v-8.08a21.06,21.06,0,0,1-14-19.76V28A20.72,20.72,0,0,1,28,7.06H61.6c10.17,0,16.65,4.58,19.78,14h24.86A20.94,20.94,0,0,1,146.94,28l-.14,100.8a20.91,20.91,0,0,1-19.46,20.9v26.7a20.72,20.72,0,0,1-20.94,20.94Z" style="fill:#fff"/><path d="M126,8.4A19.61,19.61,0,0,1,145.6,28l-.14,100.8A19.49,19.49,0,0,1,126,148.4v28A19.37,19.37,0,0,1,106.4,196H28A19.37,19.37,0,0,1,8.4,176.4a19.61,19.61,0,0,1,14-18.79v-10a19.61,19.61,0,0,1-14-18.79V28A19.37,19.37,0,0,1,28,8.4H61.6c11.2,0,16.38,5.9,18.79,14h26.82A19.61,19.61,0,0,1,126,8.4m-45.61,126h0M126,5.71a22.44,22.44,0,0,0-20.69,14h-23c-3.42-9.29-10.39-14-20.73-14H28A22.05,22.05,0,0,0,5.71,28V128.8a22.44,22.44,0,0,0,14,20.69v6.22a22.44,22.44,0,0,0-14,20.69A22.05,22.05,0,0,0,28,198.69h78.4a22.05,22.05,0,0,0,22.29-22.29V150.92a22.26,22.26,0,0,0,19.46-22.12L148.29,28A22.32,22.32,0,0,0,126,5.71Z" style="fill:#333"/><line x1="205.21" y1="28" x2="184.8" y2="28" style="fill:none;stroke:#333;stroke-miterlimit:10;stroke-width:4.032px"/><line x1="156.8" y1="28" x2="145.6" y2="28" style="fill:none;stroke:#333;stroke-miterlimit:10;stroke-width:4.032px"/><line x1="156.8" y1="95.2" x2="145.6" y2="95.2" style="fill:none;stroke:#333;stroke-miterlimit:10;stroke-width:4.032px"/><line x1="205.21" y1="95.2" x2="184.8" y2="95.2" style="fill:none;stroke:#333;stroke-miterlimit:10;stroke-width:4.032px"/><line x1="238.81" y1="28" x2="237.8" y2="28" style="fill:none;stroke:#333;stroke-miterlimit:10;stroke-width:4.032px"/><line x1="235.7" y1="28" x2="207.27" y2="28" style="fill:none;stroke:#333;stroke-miterlimit:10;stroke-width:4.032px;stroke-dasharray:2.105599880218506,2.105599880218506"/><line x1="206.22" y1="28" x2="205.21" y2="28" style="fill:none;stroke:#333;stroke-miterlimit:10;stroke-width:4.032px"/><line x1="238.81" y1="95.2" x2="237.8" y2="95.2" style="fill:none;stroke:#333;stroke-miterlimit:10;stroke-width:4.032px"/><line x1="235.7" y1="95.2" x2="207.27" y2="95.2" style="fill:none;stroke:#333;stroke-miterlimit:10;stroke-width:4.032px;stroke-dasharray:2.105599880218506,2.105599880218506"/><line x1="206.22" y1="95.2" x2="205.21" y2="95.2" style="fill:none;stroke:#333;stroke-miterlimit:10;stroke-width:4.032px"/><rect width="243.6" height="204.4" style="fill:none"/><line x1="61.6" y1="176.4" x2="84" y2="154" style="fill:none;stroke:#333;stroke-linecap:round;stroke-miterlimit:10;stroke-width:2.016px"/><path d="M28,70V81.2a14,14,0,0,1,0,28v11.2" style="fill:#fff;stroke:#333;stroke-linecap:square;stroke-miterlimit:10;stroke-width:1.3439999999999999px"/><line x1="36.4" y1="95.2" x2="42" y2="95.2" style="fill:none;stroke:#333;stroke-linejoin:round;stroke-width:1.3439999999999999px"/><line x1="75.6" y1="95.2" x2="84" y2="95.2" style="fill:none;stroke:#333;stroke-linecap:square;stroke-linejoin:round;stroke-width:1.3439999999999999px"/><line x1="44.8" y1="14" x2="44.8" y2="8.4" style="fill:none;stroke:#333;stroke-linecap:square;stroke-miterlimit:10;stroke-width:1.3439999999999999px"/><line x1="61.6" y1="70" x2="61.6" y2="120.4" style="fill:none;stroke:#333;stroke-linecap:square;stroke-miterlimit:10;stroke-width:1.3439999999999999px"/><line x1="61.6" y1="176.4" x2="50.4" y2="165.2" style="fill:none;stroke:#333;stroke-linecap:round;stroke-miterlimit:10;stroke-width:2.016px"/><circle cx="92.4" cy="95.2" r="8.4" style="fill:#333;stroke:#333;stroke-miterlimit:10;stroke-width:1.3439999999999999px"/><circle cx="28" cy="28" r="8.4" style="fill:#333;stroke:#333;stroke-miterlimit:10;stroke-width:1.3439999999999999px"/><circle cx="28" cy="61.6" r="8.4" style="fill:#333;stroke:#333;stroke-miterlimit:10;stroke-width:1.3439999999999999px"/><circle cx="28" cy="95.2" r="8.4" style="fill:#333;stroke:#333;stroke-miterlimit:10;stroke-width:1.3439999999999999px"/><circle cx="28" cy="128.8" r="8.4" style="fill:#333;stroke:#333;stroke-miterlimit:10;stroke-width:1.3439999999999999px"/><circle cx="28" cy="176.4" r="8.4" style="fill:#333;stroke:#333;stroke-miterlimit:10;stroke-width:1.3439999999999999px"/><circle cx="61.6" cy="176.4" r="8.4" style="fill:#333;stroke:#333;stroke-miterlimit:10;stroke-width:1.3439999999999999px"/><circle cx="61.6" cy="128.8" r="8.4" style="fill:#333;stroke:#333;stroke-miterlimit:10;stroke-width:1.3439999999999999px"/><circle cx="61.6" cy="28" r="8.4" style="fill:#333;stroke:#333;stroke-miterlimit:10;stroke-width:1.3439999999999999px"/><circle cx="61.6" cy="61.6" r="8.4" style="fill:#333;stroke:#333;stroke-miterlimit:10;stroke-width:1.3439999999999999px"/><circle cx="61.6" cy="95.2" r="8.4" style="fill:#333;stroke:#333;stroke-miterlimit:10;stroke-width:1.3439999999999999px"/><circle cx="126" cy="28" r="14" style="fill:#fff;stroke:#333;stroke-miterlimit:10;stroke-width:1.3439999999999999px"/><path d="M126,47.6a14,14,0,0,0-14,14h0v67.2a14,14,0,0,0,28,0V61.6h0A14,14,0,0,0,126,47.6Z" style="fill:#fff;stroke:#333;stroke-miterlimit:10;stroke-width:1.3439999999999999px"/><line x1="126" y1="56" x2="126" y2="134.4" style="fill:none;stroke:#333;stroke-linecap:round;stroke-miterlimit:10;stroke-width:1.3439999999999999px"/><line x1="92.4" y1="56" x2="92.4" y2="134.4" style="fill:none;stroke:#333;stroke-linecap:round;stroke-miterlimit:10;stroke-width:1.3439999999999999px"/><circle cx="126" cy="28" r="8.4" style="fill:#333;stroke:#333;stroke-miterlimit:10;stroke-width:1.3439999999999999px"/><circle cx="126" cy="95.2" r="8.4" style="fill:#333;stroke:#333;stroke-miterlimit:10;stroke-width:1.3439999999999999px"/><line x1="126" y1="47.6" x2="126" y2="42" style="fill:none;stroke:#333;stroke-linecap:square;stroke-miterlimit:10;stroke-width:1.3439999999999999px"/><circle cx="170.8" cy="28" r="14" style="fill:#fff;stroke:#333;stroke-miterlimit:10;stroke-width:2.016px"/><path d="M170.8,47.6a14,14,0,0,0-14,14h0v67.2a14,14,0,0,0,28,0V61.6h0A14,14,0,0,0,170.8,47.6Z" style="fill:#fff;stroke:#333;stroke-miterlimit:10;stroke-width:2.016px"/><line x1="170.8" y1="56" x2="170.8" y2="134.4" style="fill:none;stroke:#333;stroke-linecap:round;stroke-miterlimit:10;stroke-width:1.3439999999999999px"/><circle cx="170.8" cy="28" r="8.4" style="fill:#333;stroke:#333;stroke-miterlimit:10;stroke-width:1.3439999999999999px"/><circle cx="170.8" cy="95.2" r="8.4" style="fill:#333;stroke:#333;stroke-miterlimit:10;stroke-width:1.3439999999999999px"/><line x1="170.8" y1="47.6" x2="170.8" y2="42" style="fill:none;stroke:#333;stroke-linecap:square;stroke-miterlimit:10;stroke-width:1.3439999999999999px"/><line x1="106.85" y1="95.2" x2="95.2" y2="95.2" style="fill:none;stroke:#333;stroke-miterlimit:10;stroke-width:4.032px"/><line x1="106.4" y1="89.6" x2="106.4" y2="100.8" style="fill:none;stroke:#333;stroke-linecap:round;stroke-miterlimit:10;stroke-width:1.3439999999999999px"/><path d="M173,30.45l1.15-6.12h1.77L174,32.93h-1.78l-1.4-5.75-1.4,5.75h-1.78l-1.91-8.6h1.76l1.17,6.11,1.42-6.11h1.5Z" style="fill:#fff"/><path d="M170.79,95.4l1.79-3.87h1.94L171.7,97v3.12h-1.8V97l-2.83-5.48h2Z" style="fill:#fff"/><path d="M129.49,100.13h-1.77l-3.45-5.66v5.66H122.5v-8.6h1.77l3.46,5.67V91.53h1.76Z" style="fill:#fff"/><path d="M123.79,24.33,126,30.57l2.19-6.24h2.33v8.6h-1.78V30.58l.18-4.06-2.32,6.41h-1.22l-2.31-6.4.17,4v2.35h-1.77v-8.6Z" style="fill:#fff"/><path d="M64.23,29.41h-3.4v3.52H59.05v-8.6h5.6v1.43H60.83V28h3.4Z" style="fill:#fff"/><path d="M26.64,29.9v3H24.87v-8.6h3.35a4,4,0,0,1,1.71.35,2.71,2.71,0,0,1,1.13,1,2.86,2.86,0,0,1,.39,1.49,2.49,2.49,0,0,1-.86,2,3.6,3.6,0,0,1-2.4.73Zm0-1.44h1.58a1.54,1.54,0,0,0,1.07-.33,1.18,1.18,0,0,0,.37-.94,1.34,1.34,0,0,0-1.4-1.43H26.64Z" style="fill:#fff"/><path d="M63.11,64.27a.93.93,0,0,0-.35-.77,4.81,4.81,0,0,0-1.28-.57A9.8,9.8,0,0,1,60,62.35a2.38,2.38,0,0,1-1.46-2.14A2.1,2.1,0,0,1,59,59a2.55,2.55,0,0,1,1.13-.85,4.15,4.15,0,0,1,1.65-.31,3.91,3.91,0,0,1,1.64.33,2.68,2.68,0,0,1,1.12,1,2.48,2.48,0,0,1,.4,1.38H63.12a1.16,1.16,0,0,0-.38-.92,1.49,1.49,0,0,0-1-.33,1.58,1.58,0,0,0-1,.28.86.86,0,0,0-.36.72.83.83,0,0,0,.42.7,4.62,4.62,0,0,0,1.24.53,5.46,5.46,0,0,1,2.21,1.13,2.25,2.25,0,0,1,.69,1.68A2.06,2.06,0,0,1,64,66a3.71,3.71,0,0,1-2.27.64A4.43,4.43,0,0,1,60,66.28a2.82,2.82,0,0,1-1.24-1,2.52,2.52,0,0,1-.43-1.47h1.78c0,.95.56,1.43,1.7,1.43a1.69,1.69,0,0,0,1-.26A.85.85,0,0,0,63.11,64.27Z" style="fill:#fff"/><path d="M31.68,59.36H29v7.17H27.27V59.36h-2.6V57.93h7Z" style="fill:#fff"/><path d="M65.16,97.26a3.07,3.07,0,0,1-1,2.19,3.62,3.62,0,0,1-2.44.8,3.24,3.24,0,0,1-2.6-1.12,4.56,4.56,0,0,1-1-3v-.53a5.19,5.19,0,0,1,.44-2.19,3.3,3.3,0,0,1,1.25-1.45,3.54,3.54,0,0,1,1.88-.5,3.5,3.5,0,0,1,2.4.8,3.22,3.22,0,0,1,1,2.24H63.4a1.8,1.8,0,0,0-.46-1.21,1.73,1.73,0,0,0-1.22-.38,1.48,1.48,0,0,0-1.32.64,3.6,3.6,0,0,0-.45,2v.65a3.77,3.77,0,0,0,.42,2,1.47,1.47,0,0,0,1.33.65,1.76,1.76,0,0,0,1.23-.38,1.68,1.68,0,0,0,.46-1.16Z" style="fill:#fff"/><path d="M91.66,98.7h3.77v1.43H89.89v-8.6h1.77Z" style="fill:#fff"/><path d="M28.09,97H26.68v3.15H24.91v-8.6H28.1a3.61,3.61,0,0,1,2.36.68,2.34,2.34,0,0,1,.82,1.92,2.58,2.58,0,0,1-.38,1.46,2.53,2.53,0,0,1-1.15.94L31.61,100v.09h-1.9Zm-1.41-1.44h1.43a1.42,1.42,0,0,0,1-.34,1.17,1.17,0,0,0,.37-.93,1.3,1.3,0,0,0-.34-1A1.48,1.48,0,0,0,28.1,93H26.68Z" style="fill:#fff"/><path d="M61.6,128.09l1.62-3h2l-2.5,4.26,2.57,4.34H63.26l-1.66-3-1.65,3H57.89l2.57-4.34L58,125.13h2Z" style="fill:#fff"/><path d="M27.62,130.28l-.92,1v2.46H24.93v-8.6H26.7V129l.78-1.07,2.19-2.83h2.18L28.8,129l3.14,4.78H29.83Z" style="fill:#fff"/><path d="M27,180.49a.87.87,0,0,1,.27-.66,1.06,1.06,0,0,1,1.39,0,.87.87,0,0,1,.27.66.83.83,0,0,1-.27.65,1,1,0,0,1-.7.25,1,1,0,0,1-.69-.25A.83.83,0,0,1,27,180.49Z" style="fill:#fff"/><path d="M65.09,181.33H63.32v-3.69H59.87v3.69H58.09v-8.6h1.78v3.48h3.45v-3.48h1.77Z" style="fill:#fff"/></svg>