<svg xmlns="http://www.w3.org/2000/svg" viewBox="0 0 362.5 304.17"><defs><style>.cls-1,.cls-13,.cls-14,.cls-15,.cls-7,.cls-8{fill:#fff;}.cls-12,.cls-2{fill:#333;}.cls-10,.cls-11,.cls-3,.cls-4,.cls-5,.cls-6,.cls-9{fill:none;}.cls-10,.cls-11,.cls-12,.cls-13,.cls-3,.cls-4,.cls-6,.cls-7,.cls-8,.cls-9{stroke:#333;}.cls-10,.cls-11,.cls-12,.cls-13,.cls-3,.cls-4,.cls-6,.cls-7,.cls-8{stroke-miterlimit:10;}.cls-3,.cls-4{stroke-width:6px;}.cls-4{stroke-dasharray:3.13 3.13;}.cls-11,.cls-6,.cls-8{stroke-linecap:round;}.cls-13,.cls-6{stroke-width:3px;}.cls-10,.cls-11,.cls-12,.cls-7,.cls-8,.cls-9{stroke-width:2px;}.cls-9{stroke-linejoin:round;}.cls-14,.cls-15{font-size:18px;font-family:Roboto-Bold, Roboto;font-weight:700;}.cls-15{letter-spacing:-0.03em;}</style></defs><title>P&amp;apos;emek- level-1</title><g id="Layer_2" data-name="Layer 2"><g id="Layer_3" data-name="Layer 3"><polygon class="cls-1" points="119.63 200 119.63 200 119.63 200 119.63 200"/><polyline class="cls-2" points="119.63 200 119.63 200 119.63 200 119.63 200"/><path class="cls-1" d="M41.67,293.67A30.84,30.84,0,0,1,10.5,262.5a31.2,31.2,0,0,1,29.17-31.1v-8.63a31.2,31.2,0,0,1-29.17-31.1v-150A30.84,30.84,0,0,1,41.67,10.5h50c15.14,0,24.77,6.82,29.42,20.83h37a31.17,31.17,0,0,1,60.58,10.34l-.21,150a31.12,31.12,0,0,1-29,31.1V262.5a30.84,30.84,0,0,1-31.17,31.17Z"/><path class="cls-2" d="M187.5,12.5a29.17,29.17,0,0,1,29.17,29.17l-.21,150a29,29,0,0,1-29,29.16V262.5a28.82,28.82,0,0,1-29.17,29.17H41.67A28.82,28.82,0,0,1,12.5,262.5a29.17,29.17,0,0,1,29.17-29.17v-12.5A29.17,29.17,0,0,1,12.5,191.67v-150A28.82,28.82,0,0,1,41.67,12.5h50c16.66,0,24.37,8.79,28,20.83h39.91a29.19,29.19,0,0,1,28-20.83M119.63,200h0M187.5,8.5a33.39,33.39,0,0,0-30.79,20.83h-34.2C117.42,15.51,107.06,8.5,91.67,8.5h-50A32.82,32.82,0,0,0,8.5,41.67v150a33.21,33.21,0,0,0,29.17,32.92v5A33.22,33.22,0,0,0,8.5,262.5a32.82,32.82,0,0,0,33.17,33.17H158.33A32.82,32.82,0,0,0,191.5,262.5V224.59a33.15,33.15,0,0,0,29-32.92l.21-150A33.21,33.21,0,0,0,187.5,8.5Z"/><line class="cls-3" x1="305.37" y1="41.67" x2="275" y2="41.67"/><line class="cls-3" x1="233.33" y1="41.67" x2="216.67" y2="41.67"/><line class="cls-3" x1="233.33" y1="141.67" x2="216.67" y2="141.67"/><line class="cls-3" x1="305.37" y1="141.67" x2="275" y2="141.67"/><line class="cls-3" x1="355.37" y1="41.67" x2="353.87" y2="41.67"/><line class="cls-4" x1="350.74" y1="41.67" x2="308.44" y2="41.67"/><line class="cls-3" x1="306.87" y1="41.67" x2="305.37" y2="41.67"/><line class="cls-3" x1="355.37" y1="141.67" x2="353.87" y2="141.67"/><line class="cls-4" x1="350.74" y1="141.67" x2="308.44" y2="141.67"/><line class="cls-3" x1="306.87" y1="141.67" x2="305.37" y2="141.67"/><rect class="cls-5" width="362.5" height="304.17"/><line class="cls-6" x1="91.67" y1="262.5" x2="125" y2="229.17"/><path class="cls-7" d="M91.67,70.83V62.5A20.84,20.84,0,1,0,70.83,41.67H62.5A20.84,20.84,0,1,0,41.67,62.5v8.33c-11.51,0-20.84,8.34-20.84,20.84v100c0,12.5,9.33,20.83,20.84,20.83v29.17a20.83,20.83,0,1,0,.63,41.65c11.21-.29,20.2-8.55,20.2-20.82h8.33a20.84,20.84,0,1,0,20.84-20.83V212.5c11.5,0,20.83-8.33,20.83-20.83v-100C112.5,79.17,103.17,70.83,91.67,70.83Z"/><path class="cls-8" d="M41.67,91.67v29.16a20.84,20.84,0,0,1,0,41.67v29.17"/><line class="cls-9" x1="54.17" y1="141.67" x2="62.5" y2="141.67"/><line class="cls-9" x1="112.5" y1="141.67" x2="125" y2="141.67"/><line class="cls-10" x1="66.67" y1="20.83" x2="66.67" y2="12.5"/><line class="cls-11" x1="91.67" y1="91.67" x2="91.67" y2="195.83"/><line class="cls-6" x1="91.67" y1="262.5" x2="75" y2="245.83"/><circle class="cls-12" cx="137.5" cy="141.67" r="12.5"/><circle class="cls-12" cx="41.67" cy="41.67" r="12.5"/><circle class="cls-12" cx="41.67" cy="91.67" r="12.5"/><circle class="cls-12" cx="41.67" cy="141.67" r="12.5"/><circle class="cls-12" cx="41.67" cy="191.67" r="12.5"/><circle class="cls-12" cx="41.67" cy="262.5" r="12.5"/><circle class="cls-12" cx="91.67" cy="262.5" r="12.5"/><circle class="cls-12" cx="91.67" cy="191.67" r="12.5"/><circle class="cls-12" cx="91.67" cy="41.67" r="12.5"/><circle class="cls-12" cx="91.67" cy="91.67" r="12.5"/><circle class="cls-12" cx="91.67" cy="141.67" r="12.5"/><circle class="cls-7" cx="187.5" cy="41.67" r="20.83"/><path class="cls-7" d="M187.5,70.83a20.83,20.83,0,0,0-20.83,20.84h0v100c0,12.5,9.32,20.83,20.83,20.83s20.83-8.33,20.83-20.83v-100h0A20.83,20.83,0,0,0,187.5,70.83Z"/><line class="cls-11" x1="187.5" y1="83.33" x2="187.5" y2="200"/><line class="cls-11" x1="137.5" y1="83.33" x2="137.5" y2="200"/><circle class="cls-12" cx="187.5" cy="41.67" r="12.5"/><circle class="cls-12" cx="187.5" cy="141.67" r="12.5"/><line class="cls-10" x1="187.5" y1="70.83" x2="187.5" y2="62.5"/><circle class="cls-13" cx="254.17" cy="41.67" r="20.83"/><path class="cls-13" d="M254.17,70.83a20.84,20.84,0,0,0-20.84,20.84h0v100c0,12.5,9.33,20.83,20.84,20.83S275,204.17,275,191.67v-100h0A20.84,20.84,0,0,0,254.17,70.83Z"/><line class="cls-11" x1="254.17" y1="83.33" x2="254.17" y2="200"/><circle class="cls-12" cx="254.17" cy="41.67" r="12.5"/><circle class="cls-12" cx="254.17" cy="141.67" r="12.5"/><line class="cls-10" x1="254.17" y1="70.83" x2="254.17" y2="62.5"/><line class="cls-3" x1="159" y1="141.67" x2="141.67" y2="141.67"/><line class="cls-11" x1="158.33" y1="133.33" x2="158.33" y2="150"/><text class="cls-14" transform="translate(246.3 49)">W</text><text class="cls-14" transform="translate(248.6 149)">Y</text><text class="cls-14" transform="translate(181.15 149)">N</text><text class="cls-14" transform="translate(179.62 49)">M</text><text class="cls-14" transform="translate(86.74 49)">F</text><text class="cls-14" transform="translate(35.86 49)">P</text><text class="cls-14" transform="translate(86.13 99)">S</text><text class="cls-15" transform="translate(36.36 99)">T</text><text class="cls-14" transform="translate(85.78 149)">C</text><text class="cls-14" transform="translate(132.63 149)">L</text><text class="cls-14" transform="translate(35.92 149)">R</text><text class="cls-14" transform="translate(85.95 199)">X</text><text class="cls-14" transform="translate(35.95 199)">K</text><text class="cls-14" transform="translate(39.05 269.83)">.</text><text class="cls-14" transform="translate(85.31 269.83)">H</text></g></g></svg>