<svg xmlns="http://www.w3.org/2000/svg" viewBox="0 0 537.5 612.5"><defs><style>.cls-1,.cls-13,.cls-19,.cls-22,.cls-4{fill:#fff;}.cls-12,.cls-14,.cls-17,.cls-18,.cls-2,.cls-20,.cls-21,.cls-23{fill:#333;}.cls-10,.cls-11,.cls-15,.cls-16,.cls-3,.cls-5,.cls-6,.cls-7,.cls-8,.cls-9{fill:none;}.cls-10,.cls-11,.cls-12,.cls-13,.cls-17,.cls-3,.cls-4,.cls-6,.cls-8,.cls-9{stroke:#333;}.cls-12,.cls-3,.cls-4,.cls-5,.cls-6{stroke-linecap:round;}.cls-10,.cls-12,.cls-13,.cls-15,.cls-17,.cls-3,.cls-4,.cls-5,.cls-6,.cls-7,.cls-8,.cls-9{stroke-miterlimit:10;}.cls-3{stroke-width:3px;}.cls-12,.cls-13,.cls-15,.cls-17,.cls-4,.cls-5,.cls-6,.cls-7,.cls-8{stroke-width:2px;}.cls-15,.cls-5,.cls-7{stroke:#fff;}.cls-10,.cls-11,.cls-9{stroke-width:6px;}.cls-10{stroke-dasharray:3.13 3.13;}.cls-11{stroke-linejoin:round;}.cls-14,.cls-18,.cls-19,.cls-20,.cls-21,.cls-22{font-size:18px;}.cls-14,.cls-20,.cls-23{font-family:Arial-BoldMT, Arial;}.cls-14,.cls-18,.cls-19,.cls-20,.cls-22,.cls-23{font-weight:700;}.cls-14{letter-spacing:-0.02em;}.cls-15{stroke-linecap:square;}.cls-18,.cls-19,.cls-22{font-family:Roboto-Bold, Roboto;}.cls-21{font-family:ArialMT, Arial;}.cls-22{letter-spacing:-0.03em;}.cls-23{font-size:14.27px;}</style></defs><title>P&amp;apos;emek- level-2</title><g id="Layer_2" data-name="Layer 2"><g id="Layer_3" data-name="Layer 3"><path class="cls-1" d="M50,602a39.5,39.5,0,0,1-2-79V456.12a39.55,39.55,0,0,1-37.5-39.45v-375A30.84,30.84,0,0,1,41.67,10.5H150c15.14,0,24.78,6.82,29.43,20.83h112A31.17,31.17,0,0,1,352,41.67v375a31.2,31.2,0,0,1-29.17,31.1V562.5a39.55,39.55,0,0,1-39.5,39.5Z"/><path class="cls-2" d="M320.83,12.5A29.17,29.17,0,0,1,350,41.67v375a29.17,29.17,0,0,1-29.17,29.16V562.5h0a37.5,37.5,0,0,1-37.5,37.5H50a37.5,37.5,0,0,1,0-75V454.17a37.5,37.5,0,0,1-37.5-37.5v-375A28.82,28.82,0,0,1,41.67,12.5H150c16.67,0,24.37,8.79,28,20.83H292.87a29.19,29.19,0,0,1,28-20.83m0-4A33.4,33.4,0,0,0,290,29.33H180.84C175.75,15.51,165.39,8.5,150,8.5H41.67A32.82,32.82,0,0,0,8.5,41.67v375A41.57,41.57,0,0,0,46,458v63.21A41.5,41.5,0,0,0,50,604H283.33a41.54,41.54,0,0,0,41.5-41.5V449.59A33.21,33.21,0,0,0,354,416.67v-375A33.21,33.21,0,0,0,320.83,8.5Z"/><line class="cls-3" x1="150" y1="512.5" x2="200" y2="462.5"/><path class="cls-4" d="M200,279.17h58.33a20.84,20.84,0,0,0,20.84-20.84c0-11.5-8.34-20.83-20.84-20.83H200a20.83,20.83,0,0,1-20.83-20.83V100c0-16.11-13.43-29.17-29.54-29.17V62.5c12.5,0,20.84-9.33,20.84-20.83a20.84,20.84,0,1,0-41.67,0H70.47a20.84,20.84,0,1,0-41.67,0c0,11.5,8.33,20.83,20.83,20.83v8.33c-15.9,0-28.8,11.52-28.8,28.8v317c0,17.28,12.9,28.8,28.8,28.8v96.2a20.83,20.83,0,1,0,.64,41.65c11.21-.3,20.2-8.55,20.2-20.82h50a29.17,29.17,0,1,0,58.33,0V491.67a29.17,29.17,0,0,0-29.17-29.17V445.83c16.11,0,29.54-13.06,29.54-29.16V300A20.82,20.82,0,0,1,200,279.17Z"/><path class="cls-2" d="M429.17,439.5c-13,0-22.84-9-22.84-21V100A22.84,22.84,0,0,1,452,100V418.54C452,430.49,442.18,439.5,429.17,439.5Z"/><path class="cls-2" d="M429.17,79.17C440.67,79.17,450,87.5,450,100h0V418.54c0,11.38-9.33,19-20.83,19s-20.84-7.58-20.84-19V100h0c0-12.5,9.33-20.83,20.84-20.83m0-4c-14.16,0-24.84,10.67-24.84,24.83V418.54c0,13.09,10.68,23,24.84,23s24.83-9.87,24.83-23V100c0-14.16-10.68-24.83-24.83-24.83Z"/><path class="cls-1" d="M429.17,64.5A22.84,22.84,0,1,1,452,41.67,22.86,22.86,0,0,1,429.17,64.5Z"/><path class="cls-2" d="M429.17,20.83a20.84,20.84,0,1,1-20.84,20.84,20.84,20.84,0,0,1,20.84-20.84m0-4A24.84,24.84,0,1,0,454,41.67a24.86,24.86,0,0,0-24.83-24.84Z"/><line class="cls-5" x1="429.17" y1="91.67" x2="429.17" y2="425"/><line class="cls-6" x1="237.5" y1="91.67" x2="237.5" y2="425"/><line class="cls-7" x1="420.83" y1="258.33" x2="437.5" y2="258.33"/><circle class="cls-1" cx="429.17" cy="150" r="12.5"/><circle class="cls-1" cx="429.17" cy="366.67" r="12.5"/><line class="cls-8" x1="70.83" y1="150" x2="129.17" y2="150"/><line class="cls-8" x1="50" y1="220.83" x2="50" y2="245.83"/><line class="cls-8" x1="50" y1="270.83" x2="50" y2="295.83"/><line class="cls-8" x1="150" y1="220.83" x2="150" y2="245.83"/><line class="cls-8" x1="129.17" y1="366.67" x2="70.83" y2="366.67"/><line class="cls-8" x1="62.5" y1="258.33" x2="137.5" y2="258.33"/><line class="cls-6" x1="150" y1="270.83" x2="150" y2="295.83"/><line class="cls-9" x1="479.17" y1="258.33" x2="450" y2="258.33"/><line class="cls-9" x1="479.17" y1="41.67" x2="450" y2="41.67"/><line class="cls-9" x1="529.17" y1="258.33" x2="527.67" y2="258.33"/><line class="cls-10" x1="524.53" y1="258.33" x2="482.23" y2="258.33"/><line class="cls-9" x1="480.67" y1="258.33" x2="479.17" y2="258.33"/><line class="cls-9" x1="529.17" y1="41.67" x2="527.67" y2="41.67"/><line class="cls-10" x1="524.53" y1="41.67" x2="482.23" y2="41.67"/><line class="cls-9" x1="480.67" y1="41.67" x2="479.17" y2="41.67"/><line class="cls-11" x1="408.33" y1="41.67" x2="350" y2="41.67"/><line class="cls-11" x1="408.33" y1="258.33" x2="350" y2="258.33"/><path class="cls-12" d="M150,79.17c11.51,0,20.83,8.33,20.83,20.83V200c0,12.5-9.32,20.83-20.83,20.83S129.17,212.5,129.17,200V100C129.17,87.5,138.49,79.17,150,79.17Z"/><line class="cls-7" x1="150" y1="112.5" x2="150" y2="137.5"/><line class="cls-7" x1="150" y1="162.5" x2="150" y2="187.5"/><polyline class="cls-5" points="158.33 129.17 150 120.83 141.67 129.17"/><polyline class="cls-5" points="141.67 170.83 150 179.17 158.33 170.83"/><circle class="cls-1" cx="150" cy="100" r="12.5"/><circle class="cls-1" cx="150" cy="150" r="12.5"/><circle class="cls-1" cx="150" cy="200" r="12.5"/><path class="cls-12" d="M50,79.17c11.51,0,20.83,8.33,20.83,20.83V200c0,12.5-9.32,20.83-20.83,20.83S29.17,212.5,29.17,200V100C29.17,87.5,38.49,79.17,50,79.17Z"/><path class="cls-12" d="M150,295.83c11.51,0,20.83,8.34,20.83,20.84v100c0,12.5-9.32,20.83-20.83,20.83s-20.83-8.33-20.83-20.83v-100C129.17,304.17,138.49,295.83,150,295.83Z"/><line class="cls-7" x1="150" y1="329.17" x2="150" y2="354.17"/><line class="cls-7" x1="150" y1="379.17" x2="150" y2="404.17"/><polyline class="cls-5" points="141.67 387.5 150 395.83 158.33 387.5"/><polyline class="cls-5" points="158.33 345.83 150 337.5 141.67 345.83"/><circle class="cls-1" cx="150" cy="316.67" r="12.5"/><circle class="cls-1" cx="150" cy="366.67" r="12.5"/><circle class="cls-1" cx="150" cy="416.67" r="12.5"/><line class="cls-8" x1="100" y1="354.17" x2="100" y2="162.5"/><path class="cls-12" d="M50,295.83c11.51,0,20.83,8.34,20.83,20.84v100c0,12.5-9.32,20.83-20.83,20.83s-20.83-8.33-20.83-20.83v-100C29.17,304.17,38.49,295.83,50,295.83Z"/><circle class="cls-13" cx="100" cy="258.33" r="12.5"/><line class="cls-6" x1="91.67" y1="250" x2="108.33" y2="266.67"/><line class="cls-6" x1="108.33" y1="250" x2="91.67" y2="266.67"/><circle class="cls-13" cx="100" cy="366.67" r="12.5"/><line class="cls-6" x1="91.67" y1="358.33" x2="108.33" y2="375"/><line class="cls-6" x1="108.33" y1="358.33" x2="91.67" y2="375"/><circle class="cls-13" cx="100" cy="150" r="12.5"/><line class="cls-6" x1="91.67" y1="141.67" x2="108.33" y2="158.33"/><line class="cls-6" x1="108.33" y1="141.67" x2="91.67" y2="158.33"/><circle class="cls-13" cx="100" cy="41.67" r="12.5"/><line class="cls-6" x1="91.67" y1="33.33" x2="108.33" y2="50"/><line class="cls-6" x1="108.33" y1="33.33" x2="91.67" y2="50"/><line class="cls-8" x1="320.83" y1="79.17" x2="320.83" y2="62.5"/><line class="cls-8" x1="429.17" y1="79.17" x2="429.17" y2="62.5"/><path class="cls-12" d="M320.83,79.17C309.33,79.17,300,87.5,300,100V200h0V418.54c0,11.38,9.33,19,20.83,19s20.84-7.58,20.84-19V100h0C341.67,87.5,332.34,79.17,320.83,79.17Z"/><line class="cls-7" x1="320.83" y1="112.5" x2="320.83" y2="404.17"/><line class="cls-7" x1="312.5" y1="258.33" x2="329.17" y2="258.33"/><line class="cls-5" x1="329.17" y1="150" x2="320.83" y2="141.67"/><line class="cls-5" x1="329.17" y1="158.33" x2="320.83" y2="150"/><line class="cls-5" x1="320.83" y1="375" x2="329.17" y2="366.67"/><line class="cls-5" x1="320.83" y1="366.67" x2="329.17" y2="358.33"/><circle class="cls-1" cx="320.83" cy="100" r="12.5"/><circle class="cls-1" cx="320.83" cy="200" r="12.5"/><circle class="cls-1" cx="320.83" cy="316.67" r="12.5"/><circle class="cls-1" cx="320.83" cy="416.67" r="12.5"/><circle class="cls-13" cx="320.83" cy="41.67" r="20.83"/><line class="cls-3" x1="129.17" y1="491.67" x2="116.67" y2="479.17"/><path class="cls-12" d="M258.33,279.17a20.84,20.84,0,0,0,20.84-20.84c0-11.5-8.34-20.83-20.84-20.83H216.67a20.84,20.84,0,0,0-20.84,20.83c0,11.51,8.34,20.84,20.84,20.84Z"/><circle class="cls-1" cx="216.67" cy="258.33" r="12.5"/><circle class="cls-1" cx="258.33" cy="258.33" r="12.5"/><text class="cls-14" transform="translate(253 265.67)">L</text><line class="cls-15" x1="237.5" y1="250" x2="237.5" y2="266.67"/><path class="cls-2" d="M150,470.83c11.51,0,20.83,8.34,20.83,20.84V562.5c0,12.5-9.32,20.83-20.83,20.83a20.82,20.82,0,0,1-20.83-20.83V491.67C129.17,479.17,138.49,470.83,150,470.83Z"/><line class="cls-7" x1="150" y1="525" x2="150" y2="550"/><line class="cls-5" x1="154.17" y1="508.33" x2="170.83" y2="491.67"/><line class="cls-5" x1="129.17" y1="491.67" x2="145.83" y2="508.33"/><circle class="cls-1" cx="150" cy="562.5" r="12.5"/><circle class="cls-1" cx="150" cy="512.5" r="12.5"/><path class="cls-6" d="M150,470.83c11.51,0,20.83,8.34,20.83,20.84V562.5c0,12.5-9.32,20.83-20.83,20.83a20.82,20.82,0,0,1-20.83-20.83V491.67C129.17,479.17,138.49,470.83,150,470.83Z"/><rect class="cls-16" width="537.5" height="612.5"/><circle class="cls-17" cx="320.83" cy="41.67" r="12.5"/><circle class="cls-17" cx="429.17" cy="41.67" r="12.5"/><circle class="cls-17" cx="50" cy="41.67" r="12.5"/><circle class="cls-17" cx="50" cy="562.5" r="12.5"/><circle class="cls-17" cx="150" cy="41.67" r="12.5"/><circle class="cls-17" cx="150" cy="258.33" r="12.5"/><circle class="cls-13" cx="50" cy="258.33" r="12.5"/><line class="cls-6" x1="175" y1="258.33" x2="200" y2="258.33"/><line class="cls-6" x1="175" y1="262.5" x2="175" y2="254.17"/><line class="cls-9" x1="292.33" y1="258.33" x2="275" y2="258.33"/><line class="cls-6" x1="291.67" y1="250" x2="291.67" y2="266.67"/><text class="cls-18" transform="translate(255.95 261.5)">˙</text><text class="cls-19" transform="translate(421.3 49)">W</text><text class="cls-19" transform="translate(312.95 49)">M</text><text class="cls-18" transform="translate(423.6 374)">Y</text><text class="cls-18" transform="translate(426.18 369.83)">´</text><text class="cls-18" transform="translate(423.6 157.33)">Y</text><text class="cls-18" transform="matrix(-1, 0, 0, 1, 432.15, 153.17)">´</text><text class="cls-18" transform="translate(314.48 107.33)">N</text><text class="cls-18" transform="matrix(-1, 0, 0, 1, 324.53, 103.17)">˝</text><text class="cls-20" transform="translate(314.33 207.33)">N</text><text class="cls-18" transform="matrix(-1, 0, 0, 1, 323.82, 203.17)">´</text><text class="cls-20" transform="translate(314.33 324)">N</text><text class="cls-18" transform="translate(317.85 319.83)">´</text><text class="cls-18" transform="translate(314.48 424)">N</text><text class="cls-18" transform="translate(317.14 419.83)">˝</text><text class="cls-19" transform="translate(145.07 49)">F</text><text class="cls-19" transform="translate(44.2 49)">P</text><text class="cls-18" transform="translate(145.54 103.17)">ˆ</text><text class="cls-18" transform="translate(144.47 107.33)">S</text><text class="cls-18" transform="translate(147.61 153.17)">˙</text><text class="cls-18" transform="translate(144.47 157.33)">S</text><text class="cls-18" transform="translate(145.76 203.17)">ˇ</text><text class="cls-18" transform="translate(144.47 207.33)">S</text><text class="cls-18" transform="translate(147.61 369.83)">˙</text><text class="cls-18" transform="translate(144.28 374)">X</text><text class="cls-18" transform="translate(145.54 319.83)">ˆ</text><text class="cls-18" transform="translate(144.33 324) scale(0.95 1)">X</text><text class="cls-19" transform="translate(144.11 265.67)">C</text><text class="cls-20" transform="translate(46.5 265.67)">ɽ</text><text class="cls-18" transform="translate(145.76 419.83)">ˇ</text><text class="cls-18" transform="translate(144.28 424)">X</text><text class="cls-18" transform="translate(147.61 565.67)">˙</text><text class="cls-18" transform="translate(143.64 569.83)">H</text><text class="cls-21" transform="translate(147 515.67)">˚</text><text class="cls-18" transform="translate(143.64 519.83)">H</text><text class="cls-22" transform="translate(44.7 153.17)">T</text><text class="cls-19" transform="translate(44.29 369.83)">K</text><text class="cls-19" transform="translate(47.38 569.83)">.</text><text class="cls-14" transform="translate(211.33 265.67)">L</text><text class="cls-23" transform="translate(212.5 255.17)">~</text></g></g></svg>