<svg xmlns="http://www.w3.org/2000/svg" width="362.5" height="304.17" viewBox="0 0 362.5 304.17"><title>P&amp;apos;emek@1</title><polygon points="119.63 200 119.63 200 119.63 200 119.63 200" style="fill:#fff"/><polyline points="119.63 200 119.63 200 119.63 200 119.63 200" style="fill:#333"/><path d="M41.67,293.67A30.84,30.84,0,0,1,10.5,262.5a31.36,31.36,0,0,1,20.83-29.41v-12A31.37,31.37,0,0,1,10.5,191.67v-150A30.84,30.84,0,0,1,41.67,10.5h50c15.14,0,24.77,6.82,29.42,20.83h37a31.17,31.17,0,0,1,60.58,10.34l-.21,150a31.12,31.12,0,0,1-29,31.1V262.5a30.84,30.84,0,0,1-31.17,31.17Z" style="fill:#fff"/><path d="M187.5,12.5a29.17,29.17,0,0,1,29.17,29.17l-.21,150a29,29,0,0,1-29,29.16V262.5a28.82,28.82,0,0,1-29.17,29.17H41.67A28.82,28.82,0,0,1,12.5,262.5a29.19,29.19,0,0,1,20.83-28V219.63a29.19,29.19,0,0,1-20.83-28v-150A28.82,28.82,0,0,1,41.67,12.5h50c16.66,0,24.37,8.79,28,20.83h39.91a29.19,29.19,0,0,1,28-20.83M119.63,200h0M187.5,8.5a33.39,33.39,0,0,0-30.79,20.83h-34.2C117.42,15.51,107.06,8.5,91.67,8.5h-50A32.82,32.82,0,0,0,8.5,41.67v150a33.4,33.4,0,0,0,20.83,30.79v9.25A33.39,33.39,0,0,0,8.5,262.5a32.82,32.82,0,0,0,33.17,33.17H158.33A32.82,32.82,0,0,0,191.5,262.5V224.59a33.15,33.15,0,0,0,29-32.92l.21-150A33.21,33.21,0,0,0,187.5,8.5Z" style="fill:#333"/><line x1="305.37" y1="41.67" x2="275" y2="41.67" style="fill:none;stroke:#333;stroke-miterlimit:10;stroke-width:6px"/><line x1="233.33" y1="41.67" x2="216.67" y2="41.67" style="fill:none;stroke:#333;stroke-miterlimit:10;stroke-width:6px"/><line x1="233.33" y1="141.67" x2="216.67" y2="141.67" style="fill:none;stroke:#333;stroke-miterlimit:10;stroke-width:6px"/><line x1="305.37" y1="141.67" x2="275" y2="141.67" style="fill:none;stroke:#333;stroke-miterlimit:10;stroke-width:6px"/><line x1="355.37" y1="41.67" x2="353.87" y2="41.67" style="fill:none;stroke:#333;stroke-miterlimit:10;stroke-width:6px"/><line x1="350.74" y1="41.67" x2="308.44" y2="41.67" style="fill:none;stroke:#333;stroke-miterlimit:10;stroke-width:6px;stroke-dasharray:3.133333444595337,3.133333444595337"/><line x1="306.87" y1="41.67" x2="305.37" y2="41.67" style="fill:none;stroke:#333;stroke-miterlimit:10;stroke-width:6px"/><line x1="355.37" y1="141.67" x2="353.87" y2="141.67" style="fill:none;stroke:#333;stroke-miterlimit:10;stroke-width:6px"/><line x1="350.74" y1="141.67" x2="308.44" y2="141.67" style="fill:none;stroke:#333;stroke-miterlimit:10;stroke-width:6px;stroke-dasharray:3.133333444595337,3.133333444595337"/><line x1="306.87" y1="141.67" x2="305.37" y2="141.67" style="fill:none;stroke:#333;stroke-miterlimit:10;stroke-width:6px"/><rect width="362.5" height="304.17" style="fill:none"/><line x1="91.67" y1="262.5" x2="125" y2="229.17" style="fill:none;stroke:#333;stroke-linecap:round;stroke-miterlimit:10;stroke-width:3px"/><path d="M41.67,104.17v16.66a20.84,20.84,0,0,1,0,41.67v16.67" style="fill:#fff;stroke:#333;stroke-linecap:square;stroke-miterlimit:10;stroke-width:2px"/><line x1="54.17" y1="141.67" x2="62.5" y2="141.67" style="fill:none;stroke:#333;stroke-linejoin:round;stroke-width:2px"/><line x1="112.5" y1="141.67" x2="125" y2="141.67" style="fill:none;stroke:#333;stroke-linecap:square;stroke-linejoin:round;stroke-width:2px"/><line x1="66.67" y1="20.83" x2="66.67" y2="12.5" style="fill:none;stroke:#333;stroke-linecap:square;stroke-miterlimit:10;stroke-width:2px"/><line x1="91.67" y1="104.17" x2="91.67" y2="179.17" style="fill:none;stroke:#333;stroke-linecap:square;stroke-miterlimit:10;stroke-width:2px"/><line x1="91.67" y1="262.5" x2="75" y2="245.83" style="fill:none;stroke:#333;stroke-linecap:round;stroke-miterlimit:10;stroke-width:3px"/><circle cx="137.5" cy="141.67" r="12.5" style="fill:#333;stroke:#333;stroke-miterlimit:10;stroke-width:2px"/><circle cx="41.67" cy="41.67" r="12.5" style="fill:#333;stroke:#333;stroke-miterlimit:10;stroke-width:2px"/><circle cx="41.67" cy="91.67" r="12.5" style="fill:#333;stroke:#333;stroke-miterlimit:10;stroke-width:2px"/><circle cx="41.67" cy="141.67" r="12.5" style="fill:#333;stroke:#333;stroke-miterlimit:10;stroke-width:2px"/><circle cx="41.67" cy="191.67" r="12.5" style="fill:#333;stroke:#333;stroke-miterlimit:10;stroke-width:2px"/><circle cx="41.67" cy="262.5" r="12.5" style="fill:#333;stroke:#333;stroke-miterlimit:10;stroke-width:2px"/><circle cx="91.67" cy="262.5" r="12.5" style="fill:#333;stroke:#333;stroke-miterlimit:10;stroke-width:2px"/><circle cx="91.67" cy="191.67" r="12.5" style="fill:#333;stroke:#333;stroke-miterlimit:10;stroke-width:2px"/><circle cx="91.67" cy="41.67" r="12.5" style="fill:#333;stroke:#333;stroke-miterlimit:10;stroke-width:2px"/><circle cx="91.67" cy="91.67" r="12.5" style="fill:#333;stroke:#333;stroke-miterlimit:10;stroke-width:2px"/><circle cx="91.67" cy="141.67" r="12.5" style="fill:#333;stroke:#333;stroke-miterlimit:10;stroke-width:2px"/><circle cx="187.5" cy="41.67" r="20.83" style="fill:#fff;stroke:#333;stroke-miterlimit:10;stroke-width:2px"/><path d="M187.5,70.83a20.83,20.83,0,0,0-20.83,20.84h0v100c0,12.5,9.32,20.83,20.83,20.83s20.83-8.33,20.83-20.83v-100h0A20.83,20.83,0,0,0,187.5,70.83Z" style="fill:#fff;stroke:#333;stroke-miterlimit:10;stroke-width:2px"/><line x1="187.5" y1="83.33" x2="187.5" y2="200" style="fill:none;stroke:#333;stroke-linecap:round;stroke-miterlimit:10;stroke-width:2px"/><line x1="137.5" y1="83.33" x2="137.5" y2="200" style="fill:none;stroke:#333;stroke-linecap:round;stroke-miterlimit:10;stroke-width:2px"/><circle cx="187.5" cy="41.67" r="12.5" style="fill:#333;stroke:#333;stroke-miterlimit:10;stroke-width:2px"/><circle cx="187.5" cy="141.67" r="12.5" style="fill:#333;stroke:#333;stroke-miterlimit:10;stroke-width:2px"/><line x1="187.5" y1="70.83" x2="187.5" y2="62.5" style="fill:none;stroke:#333;stroke-linecap:square;stroke-miterlimit:10;stroke-width:2px"/><circle cx="254.17" cy="41.67" r="20.83" style="fill:#fff;stroke:#333;stroke-miterlimit:10;stroke-width:3px"/><path d="M254.17,70.83a20.84,20.84,0,0,0-20.84,20.84h0v100c0,12.5,9.33,20.83,20.84,20.83S275,204.17,275,191.67v-100h0A20.84,20.84,0,0,0,254.17,70.83Z" style="fill:#fff;stroke:#333;stroke-miterlimit:10;stroke-width:3px"/><line x1="254.17" y1="83.33" x2="254.17" y2="200" style="fill:none;stroke:#333;stroke-linecap:round;stroke-miterlimit:10;stroke-width:2px"/><circle cx="254.17" cy="41.67" r="12.5" style="fill:#333;stroke:#333;stroke-miterlimit:10;stroke-width:2px"/><circle cx="254.17" cy="141.67" r="12.5" style="fill:#333;stroke:#333;stroke-miterlimit:10;stroke-width:2px"/><line x1="254.17" y1="70.83" x2="254.17" y2="62.5" style="fill:none;stroke:#333;stroke-linecap:square;stroke-miterlimit:10;stroke-width:2px"/><line x1="159" y1="141.67" x2="141.67" y2="141.67" style="fill:none;stroke:#333;stroke-miterlimit:10;stroke-width:6px"/><line x1="158.33" y1="133.33" x2="158.33" y2="150" style="fill:none;stroke:#333;stroke-linecap:round;stroke-miterlimit:10;stroke-width:2px"/><path d="M257.4,45.31l1.73-9.11h2.63L258.92,49h-2.66l-2.08-8.56L252.1,49h-2.66L246.6,36.2h2.63L251,45.29l2.11-9.09h2.23Z" style="fill:#fff"/><path d="M254.16,142l2.66-5.77h2.88l-4.2,8.16V149h-2.68v-4.64l-4.2-8.16h2.89Z" style="fill:#fff"/><path d="M192.69,149h-2.63l-5.13-8.42V149h-2.64V136.2h2.64l5.14,8.44V136.2h2.62Z" style="fill:#fff"/><path d="M184.2,36.2l3.29,9.28,3.27-9.28h3.46V49h-2.64V45.5l.26-6L188.39,49h-1.81l-3.45-9.53.27,6V49h-2.64V36.2Z" style="fill:#fff"/><path d="M95.58,43.77H90.52V49H87.88V36.2h8.33v2.14H90.52v3.3h5.06Z" style="fill:#fff"/><path d="M39.64,44.49V49H37V36.2h5a5.78,5.78,0,0,1,2.53.53,3.92,3.92,0,0,1,1.69,1.5,4.19,4.19,0,0,1,.58,2.21,3.72,3.72,0,0,1-1.28,3A5.4,5.4,0,0,1,42,44.49Zm0-2.13H42a2.3,2.3,0,0,0,1.59-.5,1.75,1.75,0,0,0,.55-1.4,2.09,2.09,0,0,0-.55-1.52,2.05,2.05,0,0,0-1.53-.6H39.64Z" style="fill:#fff"/><path d="M93.91,95.64a1.31,1.31,0,0,0-.53-1.14,6.86,6.86,0,0,0-1.89-.85,13.25,13.25,0,0,1-2.17-.87,3.55,3.55,0,0,1-2.18-3.18,3.1,3.1,0,0,1,.58-1.85,3.87,3.87,0,0,1,1.68-1.27A6.42,6.42,0,0,1,91.86,86a5.78,5.78,0,0,1,2.44.49A3.9,3.9,0,0,1,96,87.93a3.6,3.6,0,0,1,.6,2H93.92a1.71,1.71,0,0,0-.55-1.36,2.26,2.26,0,0,0-1.56-.49,2.39,2.39,0,0,0-1.5.41,1.28,1.28,0,0,0-.54,1.07,1.23,1.23,0,0,0,.63,1,7.37,7.37,0,0,0,1.85.79,8,8,0,0,1,3.28,1.68,3.37,3.37,0,0,1,1,2.5,3.08,3.08,0,0,1-1.26,2.6,5.51,5.51,0,0,1-3.38,1,6.37,6.37,0,0,1-2.69-.55,4.13,4.13,0,0,1-1.85-1.48A3.73,3.73,0,0,1,86.74,95h2.65c0,1.42.84,2.12,2.53,2.12a2.48,2.48,0,0,0,1.46-.38A1.22,1.22,0,0,0,93.91,95.64Z" style="fill:#fff"/><path d="M47.14,88.34H43.22V99H40.58V88.34H36.71V86.2H47.14Z" style="fill:#fff"/><path d="M97,144.74A4.53,4.53,0,0,1,95.44,148a5.35,5.35,0,0,1-3.62,1.19,4.86,4.86,0,0,1-3.88-1.66A6.79,6.79,0,0,1,86.53,143v-.78a7.69,7.69,0,0,1,.65-3.25A4.94,4.94,0,0,1,89,136.78a5.83,5.83,0,0,1,6.38.43A4.89,4.89,0,0,1,97,140.54H94.35a2.72,2.72,0,0,0-.69-1.79,2.58,2.58,0,0,0-1.81-.56,2.22,2.22,0,0,0-2,.94,5.27,5.27,0,0,0-.67,2.94v1a5.62,5.62,0,0,0,.62,3,2.2,2.2,0,0,0,2,1,2.56,2.56,0,0,0,1.82-.56,2.51,2.51,0,0,0,.69-1.72Z" style="fill:#fff"/><path d="M136.41,146.88H142V149h-8.23V136.2h2.64Z" style="fill:#fff"/><path d="M41.8,144.32H39.7V149H37.07V136.2h4.75a5.41,5.41,0,0,1,3.5,1,3.51,3.51,0,0,1,1.23,2.86,3.91,3.91,0,0,1-.57,2.18,3.86,3.86,0,0,1-1.72,1.4L47,148.88V149H44.2Zm-2.1-2.14h2.13a2.18,2.18,0,0,0,1.54-.51,1.8,1.8,0,0,0,.54-1.39,1.93,1.93,0,0,0-.51-1.42,2.12,2.12,0,0,0-1.58-.52H39.7Z" style="fill:#fff"/><path d="M91.67,190.62l2.4-4.42h3l-3.72,6.35L97.2,199H94.13l-2.46-4.48L89.21,199H86.14L90,192.55l-3.73-6.35h3Z" style="fill:#fff"/><path d="M41.1,193.87l-1.37,1.47V199H37.1V186.2h2.63V192l1.16-1.59,3.26-4.21H47.4l-4.55,5.69L47.53,199H44.39Z" style="fill:#fff"/><path d="M40.16,268.58a1.28,1.28,0,0,1,.41-1,1.57,1.57,0,0,1,2,0,1.25,1.25,0,0,1,.41,1,1.27,1.27,0,0,1-.4,1,1.63,1.63,0,0,1-2.07,0A1.27,1.27,0,0,1,40.16,268.58Z" style="fill:#fff"/><path d="M96.86,269.83H94.23v-5.48H89.09v5.48H86.45V257h2.64v5.18h5.14V257h2.63Z" style="fill:#fff"/></svg>