<svg xmlns="http://www.w3.org/2000/svg" width="174" height="146" viewBox="0 0 174 146"><title>P&amp;apos;emek$1</title><polygon points="57.42 96 57.42 96 57.42 96 57.42 96" style="fill:#fff"/><polyline points="57.42 96 57.42 96 57.42 96 57.42 96" style="fill:#333"/><path d="M20,141A14.8,14.8,0,0,1,5,126a15.07,15.07,0,0,1,10-14.12v-5.76A15.07,15.07,0,0,1,5,92V20A14.8,14.8,0,0,1,20,5H44c7.27,0,11.89,3.27,14.12,10H75.88A15,15,0,0,1,105,20l-.1,72A14.94,14.94,0,0,1,91,106.93V126a14.8,14.8,0,0,1-15,15Z" style="fill:#fff"/><path d="M90,6a14,14,0,0,1,14,14l-.1,72A13.92,13.92,0,0,1,90,106v20a13.83,13.83,0,0,1-14,14H20A13.83,13.83,0,0,1,6,126a14,14,0,0,1,10-13.42v-7.16A14,14,0,0,1,6,92V20A13.83,13.83,0,0,1,20,6H44c8,0,11.7,4.22,13.42,10H76.58A14,14,0,0,1,90,6M57.42,96h0M90,4.08a16,16,0,0,0-14.78,10H58.81c-2.45-6.64-7.42-10-14.81-10H20A15.75,15.75,0,0,0,4.08,20V92a16,16,0,0,0,10,14.78v4.44A16,16,0,0,0,4.08,126,15.75,15.75,0,0,0,20,141.92H76A15.75,15.75,0,0,0,91.92,126V107.8A15.9,15.9,0,0,0,105.82,92l.1-72A15.94,15.94,0,0,0,90,4.08Z" style="fill:#333"/><line x1="146.58" y1="20" x2="132" y2="20" style="fill:none;stroke:#333;stroke-miterlimit:10;stroke-width:2.88px"/><line x1="112" y1="20" x2="104" y2="20" style="fill:none;stroke:#333;stroke-miterlimit:10;stroke-width:2.88px"/><line x1="112" y1="68" x2="104" y2="68" style="fill:none;stroke:#333;stroke-miterlimit:10;stroke-width:2.88px"/><line x1="146.58" y1="68" x2="132" y2="68" style="fill:none;stroke:#333;stroke-miterlimit:10;stroke-width:2.88px"/><line x1="170.58" y1="20" x2="169.86" y2="20" style="fill:none;stroke:#333;stroke-miterlimit:10;stroke-width:2.88px"/><line x1="168.36" y1="20" x2="148.05" y2="20" style="fill:none;stroke:#333;stroke-miterlimit:10;stroke-width:2.88px;stroke-dasharray:1.503999948501587,1.503999948501587"/><line x1="147.3" y1="20" x2="146.58" y2="20" style="fill:none;stroke:#333;stroke-miterlimit:10;stroke-width:2.88px"/><line x1="170.58" y1="68" x2="169.86" y2="68" style="fill:none;stroke:#333;stroke-miterlimit:10;stroke-width:2.88px"/><line x1="168.36" y1="68" x2="148.05" y2="68" style="fill:none;stroke:#333;stroke-miterlimit:10;stroke-width:2.88px;stroke-dasharray:1.503999948501587,1.503999948501587"/><line x1="147.3" y1="68" x2="146.58" y2="68" style="fill:none;stroke:#333;stroke-miterlimit:10;stroke-width:2.88px"/><rect width="174" height="146" style="fill:none"/><line x1="44" y1="126" x2="60" y2="110" style="fill:none;stroke:#333;stroke-linecap:round;stroke-miterlimit:10;stroke-width:1.44px"/><path d="M20,50v8a10,10,0,0,1,0,20v8" style="fill:#fff;stroke:#333;stroke-linecap:square;stroke-miterlimit:10;stroke-width:0.96px"/><line x1="26" y1="68" x2="30" y2="68" style="fill:none;stroke:#333;stroke-linejoin:round;stroke-width:0.96px"/><line x1="54" y1="68" x2="60" y2="68" style="fill:none;stroke:#333;stroke-linecap:square;stroke-linejoin:round;stroke-width:0.96px"/><line x1="32" y1="10" x2="32" y2="6" style="fill:none;stroke:#333;stroke-linecap:square;stroke-miterlimit:10;stroke-width:0.96px"/><line x1="44" y1="50" x2="44" y2="86" style="fill:none;stroke:#333;stroke-linecap:square;stroke-miterlimit:10;stroke-width:0.96px"/><line x1="44" y1="126" x2="36" y2="118" style="fill:none;stroke:#333;stroke-linecap:round;stroke-miterlimit:10;stroke-width:1.44px"/><circle cx="66" cy="68" r="6" style="fill:#333;stroke:#333;stroke-miterlimit:10;stroke-width:0.96px"/><circle cx="20" cy="20" r="6" style="fill:#333;stroke:#333;stroke-miterlimit:10;stroke-width:0.96px"/><circle cx="20" cy="44" r="6" style="fill:#333;stroke:#333;stroke-miterlimit:10;stroke-width:0.96px"/><circle cx="20" cy="68" r="6" style="fill:#333;stroke:#333;stroke-miterlimit:10;stroke-width:0.96px"/><circle cx="20" cy="92" r="6" style="fill:#333;stroke:#333;stroke-miterlimit:10;stroke-width:0.96px"/><circle cx="20" cy="126" r="6" style="fill:#333;stroke:#333;stroke-miterlimit:10;stroke-width:0.96px"/><circle cx="44" cy="126" r="6" style="fill:#333;stroke:#333;stroke-miterlimit:10;stroke-width:0.96px"/><circle cx="44" cy="92" r="6" style="fill:#333;stroke:#333;stroke-miterlimit:10;stroke-width:0.96px"/><circle cx="44" cy="20" r="6" style="fill:#333;stroke:#333;stroke-miterlimit:10;stroke-width:0.96px"/><circle cx="44" cy="44" r="6" style="fill:#333;stroke:#333;stroke-miterlimit:10;stroke-width:0.96px"/><circle cx="44" cy="68" r="6" style="fill:#333;stroke:#333;stroke-miterlimit:10;stroke-width:0.96px"/><circle cx="90" cy="20" r="10" style="fill:#fff;stroke:#333;stroke-miterlimit:10;stroke-width:0.96px"/><path d="M90,34A10,10,0,0,0,80,44h0V92a10,10,0,0,0,20,0V44h0A10,10,0,0,0,90,34Z" style="fill:#fff;stroke:#333;stroke-miterlimit:10;stroke-width:0.96px"/><line x1="90" y1="40" x2="90" y2="96" style="fill:none;stroke:#333;stroke-linecap:round;stroke-miterlimit:10;stroke-width:0.96px"/><line x1="66" y1="40" x2="66" y2="96" style="fill:none;stroke:#333;stroke-linecap:round;stroke-miterlimit:10;stroke-width:0.96px"/><circle cx="90" cy="20" r="6" style="fill:#333;stroke:#333;stroke-miterlimit:10;stroke-width:0.96px"/><circle cx="90" cy="68" r="6" style="fill:#333;stroke:#333;stroke-miterlimit:10;stroke-width:0.96px"/><line x1="90" y1="34" x2="90" y2="30" style="fill:none;stroke:#333;stroke-linecap:square;stroke-miterlimit:10;stroke-width:0.96px"/><circle cx="122" cy="20" r="10" style="fill:#fff;stroke:#333;stroke-miterlimit:10;stroke-width:1.44px"/><path d="M122,34a10,10,0,0,0-10,10h0V92a10,10,0,0,0,20,0V44h0A10,10,0,0,0,122,34Z" style="fill:#fff;stroke:#333;stroke-miterlimit:10;stroke-width:1.44px"/><line x1="122" y1="40" x2="122" y2="96" style="fill:none;stroke:#333;stroke-linecap:round;stroke-miterlimit:10;stroke-width:0.96px"/><circle cx="122" cy="20" r="6" style="fill:#333;stroke:#333;stroke-miterlimit:10;stroke-width:0.96px"/><circle cx="122" cy="68" r="6" style="fill:#333;stroke:#333;stroke-miterlimit:10;stroke-width:0.96px"/><line x1="122" y1="34" x2="122" y2="30" style="fill:none;stroke:#333;stroke-linecap:square;stroke-miterlimit:10;stroke-width:0.96px"/><line x1="76.32" y1="68" x2="68" y2="68" style="fill:none;stroke:#333;stroke-miterlimit:10;stroke-width:2.88px"/><line x1="76" y1="64" x2="76" y2="72" style="fill:none;stroke:#333;stroke-linecap:round;stroke-miterlimit:10;stroke-width:0.96px"/><path d="M123.55,21.75l.83-4.37h1.26l-1.36,6.14H123l-1-4.11-1,4.11h-1.28l-1.36-6.14h1.26l.83,4.36,1-4.36h1.07Z" style="fill:#fff"/><path d="M122,68.14l1.27-2.76h1.39l-2,3.91v2.23h-1.28V69.29l-2-3.91h1.39Z" style="fill:#fff"/><path d="M92.49,71.52H91.23l-2.46-4v4H87.5V65.38h1.27l2.46,4.05V65.38h1.26Z" style="fill:#fff"/><path d="M88.42,17.38,90,21.83l1.57-4.45h1.66v6.14H92V21.84l.12-2.9-1.65,4.58h-.87L87.9,19,88,21.84v1.68H86.77V17.38Z" style="fill:#fff"/><path d="M45.88,21H43.45v2.51H42.18V17.38h4v1H43.45V20h2.43Z" style="fill:#fff"/><path d="M19,21.36v2.16H17.76V17.38h2.4a2.77,2.77,0,0,1,1.22.25,1.81,1.81,0,0,1,.8.72,2,2,0,0,1,.29,1.06,1.76,1.76,0,0,1-.62,1.42,2.55,2.55,0,0,1-1.71.53Zm0-1h1.13a1.08,1.08,0,0,0,.76-.24.83.83,0,0,0,.27-.67,1,1,0,0,0-.27-.73,1,1,0,0,0-.73-.29H19Z" style="fill:#fff"/><path d="M45.08,45.91a.64.64,0,0,0-.25-.55,3.31,3.31,0,0,0-.91-.41,6.31,6.31,0,0,1-1.05-.42,1.7,1.7,0,0,1-1-1.52,1.47,1.47,0,0,1,.28-.89,1.8,1.8,0,0,1,.8-.61,3.18,3.18,0,0,1,1.18-.22,2.72,2.72,0,0,1,1.17.24,1.79,1.79,0,0,1,1.09,1.66H45.08a.8.8,0,0,0-.26-.65,1.09,1.09,0,0,0-.75-.24,1.16,1.16,0,0,0-.72.2.61.61,0,0,0,0,1,3.68,3.68,0,0,0,.89.38,3.8,3.8,0,0,1,1.58.8,1.64,1.64,0,0,1,.49,1.2,1.48,1.48,0,0,1-.6,1.25,2.69,2.69,0,0,1-1.63.45,3,3,0,0,1-1.29-.26,2.06,2.06,0,0,1-.89-.71,1.84,1.84,0,0,1-.3-1h1.27c0,.68.4,1,1.21,1a1.22,1.22,0,0,0,.71-.18A.58.58,0,0,0,45.08,45.91Z" style="fill:#fff"/><path d="M22.63,42.4H20.75v5.12H19.48V42.4H17.62v-1h5Z" style="fill:#fff"/><path d="M46.54,69.47A2.14,2.14,0,0,1,45.81,71a2.57,2.57,0,0,1-1.74.57,2.33,2.33,0,0,1-1.86-.79,3.27,3.27,0,0,1-.67-2.18v-.38a3.65,3.65,0,0,1,.31-1.56,2.4,2.4,0,0,1,.89-1,2.52,2.52,0,0,1,1.35-.36,2.49,2.49,0,0,1,1.71.57,2.27,2.27,0,0,1,.75,1.6H45.29A1.27,1.27,0,0,0,45,66.6a1.23,1.23,0,0,0-.87-.27,1.09,1.09,0,0,0-1,.45,2.62,2.62,0,0,0-.32,1.41v.47a2.73,2.73,0,0,0,.3,1.45,1,1,0,0,0,1,.46A1.25,1.25,0,0,0,45,70.3a1.22,1.22,0,0,0,.33-.83Z" style="fill:#fff"/><path d="M65.48,70.5h2.68v1h-4V65.38h1.27Z" style="fill:#fff"/><path d="M20.07,69.27h-1v2.25H17.79V65.38h2.29a2.58,2.58,0,0,1,1.67.48,1.66,1.66,0,0,1,.59,1.37,1.91,1.91,0,0,1-.27,1,1.85,1.85,0,0,1-.82.67l1.33,2.51v.06H21.22Zm-1-1h1a1,1,0,0,0,.74-.25.87.87,0,0,0,.26-.67.91.91,0,0,0-.25-.68,1,1,0,0,0-.75-.25h-1Z" style="fill:#fff"/><path d="M44,91.5l1.16-2.12h1.45l-1.79,3,1.84,3.1H45.18L44,93.37l-1.18,2.15H41.35l1.83-3.1-1.78-3h1.45Z" style="fill:#fff"/><path d="M19.73,93.06l-.66.7v1.76H17.81V89.38h1.26v2.78l.56-.76,1.57-2h1.55l-2.18,2.73,2.24,3.41h-1.5Z" style="fill:#fff"/><path d="M19.28,128.92a.61.61,0,0,1,.19-.47.71.71,0,0,1,.49-.18.7.7,0,0,1,.5.18.65.65,0,0,1,0,.94.7.7,0,0,1-.5.18.71.71,0,0,1-.49-.18A.61.61,0,0,1,19.28,128.92Z" style="fill:#fff"/><path d="M46.5,129.52H45.23v-2.63H42.76v2.63H41.5v-6.14h1.26v2.49h2.47v-2.49H46.5Z" style="fill:#fff"/></svg>