<svg xmlns="http://www.w3.org/2000/svg" width="301.5" height="269" viewBox="0 0 301.5 269"><title>Pemek-1</title><line x1="265.79" y1="29.5" x2="199.12" y2="29.5" style="fill:none;stroke:#333;stroke-miterlimit:10;stroke-width:5px"/><line x1="265.79" y1="125.5" x2="199.12" y2="125.5" style="fill:none;stroke:#333;stroke-miterlimit:10;stroke-width:5px"/><line x1="301.5" y1="29.5" x2="300.06" y2="29.5" style="fill:none;stroke:#333;stroke-miterlimit:10;stroke-width:5px"/><line x1="297.08" y1="29.5" x2="268.72" y2="29.5" style="fill:none;stroke:#333;stroke-miterlimit:10;stroke-width:5px;stroke-dasharray:2.9849350452423096,2.9849350452423096"/><line x1="267.23" y1="29.5" x2="265.79" y2="29.5" style="fill:none;stroke:#333;stroke-miterlimit:10;stroke-width:5px"/><line x1="301.5" y1="125.5" x2="300.06" y2="125.5" style="fill:none;stroke:#333;stroke-miterlimit:10;stroke-width:5px"/><line x1="297.08" y1="125.5" x2="268.72" y2="125.5" style="fill:none;stroke:#333;stroke-miterlimit:10;stroke-width:5px;stroke-dasharray:2.9849350452423096,2.9849350452423096"/><line x1="267.23" y1="125.5" x2="265.79" y2="125.5" style="fill:none;stroke:#333;stroke-miterlimit:10;stroke-width:5px"/><polygon points="104.34 181.5 104.34 181.5 104.34 181.5 104.34 181.5" style="fill:#fff;stroke:#333;stroke-miterlimit:10;stroke-width:3px"/><path d="M169.5,1.5a28,28,0,0,0-26.84,20H104.34C100.9,9.93,93.5,1.5,77.5,1.5h-48a27.67,27.67,0,0,0-28,28v144a28,28,0,0,0,20,26.84v12.32a28,28,0,0,0-20,26.84,27.67,27.67,0,0,0,28,28h112a27.67,27.67,0,0,0,28-28v-38a27.84,27.84,0,0,0,27.8-28l.2-144A28,28,0,0,0,169.5,1.5Zm-65.16,180Z" style="fill:#fff;stroke:#333;stroke-miterlimit:10;stroke-width:3px"/><circle cx="233.88" cy="29.5" r="20" style="fill:#fff;stroke:#333;stroke-miterlimit:10;stroke-width:3px"/><path d="M233.88,57.5a20,20,0,0,0-20,20h0v96c0,12,9,20,20,20s20-8,20-20v-96h0A20,20,0,0,0,233.88,57.5Z" style="fill:#fff;stroke:#333;stroke-miterlimit:10;stroke-width:3px"/><line x1="77.88" y1="239.5" x2="109.88" y2="207.5" style="fill:none;stroke:#333;stroke-linecap:round;stroke-miterlimit:10;stroke-width:2px"/><circle cx="169.88" cy="29.5" r="20" style="fill:#fff;stroke:#333;stroke-miterlimit:10;stroke-width:2px"/><path d="M169.88,57.5a20,20,0,0,0-20,20h0v96c0,12,9,20,20,20s20-8,20-20v-96h0A20,20,0,0,0,169.88,57.5Z" style="fill:#fff;stroke:#333;stroke-miterlimit:10;stroke-width:2px"/><line x1="77.88" y1="239.5" x2="61.88" y2="223.5" style="fill:none;stroke:#333;stroke-linecap:round;stroke-miterlimit:10;stroke-width:2px"/><path d="M29.88,89.5v16a20,20,0,0,1,0,40v16" style="fill:#fff;stroke:#333;stroke-linecap:square;stroke-miterlimit:10;stroke-width:2px"/><line x1="41.98" y1="125.5" x2="49.12" y2="125.5" style="fill:none;stroke:#333;stroke-linejoin:round;stroke-width:2px"/><line x1="97.88" y1="125.5" x2="109.88" y2="125.5" style="fill:none;stroke:#333;stroke-linejoin:round;stroke-width:2px"/><line x1="53.88" y1="9.5" x2="53.88" y2="1.5" style="fill:none;stroke:#333;stroke-linecap:square;stroke-miterlimit:10;stroke-width:2px"/><line x1="77.88" y1="89.5" x2="77.88" y2="161.5" style="fill:none;stroke:#333;stroke-linecap:square;stroke-miterlimit:10;stroke-width:2px"/><line x1="169.88" y1="69.5" x2="169.88" y2="181.5" style="fill:none;stroke:#333;stroke-linecap:round;stroke-miterlimit:10;stroke-width:2px"/><line x1="121.88" y1="69.5" x2="121.88" y2="181.5" style="fill:none;stroke:#333;stroke-linecap:round;stroke-miterlimit:10;stroke-width:2px"/><line x1="169.88" y1="57.5" x2="169.88" y2="49.5" style="fill:none;stroke:#333;stroke-miterlimit:10;stroke-width:2px"/><line x1="233.88" y1="69.5" x2="233.88" y2="181.5" style="fill:none;stroke:#333;stroke-linecap:round;stroke-miterlimit:10;stroke-width:2px"/><line x1="233.88" y1="57.5" x2="233.88" y2="49.5" style="fill:none;stroke:#333;stroke-miterlimit:10;stroke-width:2px"/><line x1="141.98" y1="125.5" x2="132.45" y2="125.5" style="fill:none;stroke:#333;stroke-miterlimit:10;stroke-width:5.714285714285714px"/><line x1="141.88" y1="117.5" x2="141.88" y2="133.5" style="fill:none;stroke:#333;stroke-linecap:round;stroke-miterlimit:10"/><circle cx="121.88" cy="125.5" r="12" style="fill:#333;stroke:#333;stroke-miterlimit:10;stroke-width:1.9199999999999997px"/><circle cx="30.17" cy="29.5" r="12" style="fill:#333;stroke:#333;stroke-miterlimit:10;stroke-width:1.9199999999999997px"/><circle cx="30.17" cy="77.5" r="12" style="fill:#333;stroke:#333;stroke-miterlimit:10;stroke-width:1.9199999999999997px"/><circle cx="30.17" cy="125.5" r="12" style="fill:#333;stroke:#333;stroke-miterlimit:10;stroke-width:1.9199999999999997px"/><circle cx="30.17" cy="173.5" r="12" style="fill:#333;stroke:#333;stroke-miterlimit:10;stroke-width:1.9199999999999997px"/><circle cx="30.17" cy="239.5" r="12" style="fill:#333;stroke:#333;stroke-miterlimit:10;stroke-width:1.9199999999999997px"/><circle cx="77.88" cy="239.5" r="12" style="fill:#333;stroke:#333;stroke-miterlimit:10;stroke-width:1.9199999999999997px"/><circle cx="77.88" cy="173.5" r="12" style="fill:#333;stroke:#333;stroke-miterlimit:10;stroke-width:1.9199999999999997px"/><circle cx="77.88" cy="29.5" r="12" style="fill:#333;stroke:#333;stroke-miterlimit:10;stroke-width:1.9199999999999997px"/><circle cx="77.88" cy="77.5" r="12" style="fill:#333;stroke:#333;stroke-miterlimit:10;stroke-width:1.9199999999999997px"/><circle cx="77.88" cy="125.5" r="12" style="fill:#333;stroke:#333;stroke-miterlimit:10;stroke-width:1.9199999999999997px"/><circle cx="169.88" cy="29.5" r="12" style="fill:#333;stroke:#333;stroke-miterlimit:10;stroke-width:1.9199999999999997px"/><circle cx="169.88" cy="125.5" r="12" style="fill:#333;stroke:#333;stroke-miterlimit:10;stroke-width:1.9199999999999997px"/><circle cx="233.88" cy="29.5" r="12" style="fill:#333;stroke:#333;stroke-miterlimit:10;stroke-width:1.9199999999999997px"/><circle cx="233.88" cy="125.5" r="12" style="fill:#333;stroke:#333;stroke-miterlimit:10;stroke-width:1.9199999999999997px"/><path d="M237,33l1.65-8.74h2.53l-2.73,12.28h-2.55l-2-8.22-2,8.22h-2.54l-2.73-12.28h2.52L230.81,33l2-8.72H235Z" style="fill:#fff"/><path d="M233.87,125.79l2.56-5.54h2.77l-4,7.83v4.46h-2.57v-4.46l-4-7.83h2.77Z" style="fill:#fff"/><path d="M174.87,132.54h-2.53l-4.93-8.08v8.08h-2.53V120.25h2.53l4.94,8.11v-8.11h2.52Z" style="fill:#fff"/><path d="M166.72,24.26l3.15,8.91L173,24.26h3.33V36.54H173.8V33.18l.25-5.79-3.32,9.15H169l-3.31-9.15.25,5.79v3.36h-2.53V24.26Z" style="fill:#fff"/><path d="M81.64,31.52H76.78v5H74.24V24.26h8v2H76.78v3.17h4.86Z" style="fill:#fff"/><path d="M27.94,32.21v4.33H25.4V24.26h4.8a5.5,5.5,0,0,1,2.43.5,3.79,3.79,0,0,1,1.62,1.44,4.07,4.07,0,0,1,.56,2.12,3.53,3.53,0,0,1-1.23,2.85,5.14,5.14,0,0,1-3.42,1Zm0-2.05H30.2a2.24,2.24,0,0,0,1.53-.47,1.73,1.73,0,0,0,.53-1.35,2,2,0,0,0-.54-1.46,2,2,0,0,0-1.46-.57H27.94Z" style="fill:#fff"/><path d="M80,81.32a1.28,1.28,0,0,0-.51-1.1,6.52,6.52,0,0,0-1.82-.81,14.45,14.45,0,0,1-2.09-.84,3.42,3.42,0,0,1-2.09-3,3,3,0,0,1,.56-1.77,3.6,3.6,0,0,1,1.61-1.22,6,6,0,0,1,2.36-.44,5.67,5.67,0,0,1,2.35.47A3.8,3.8,0,0,1,82,73.91a3.52,3.52,0,0,1,.57,2H80a1.63,1.63,0,0,0-.53-1.31A2.18,2.18,0,0,0,78,74.1a2.26,2.26,0,0,0-1.44.4,1.21,1.21,0,0,0-.52,1,1.17,1.17,0,0,0,.61,1,6.55,6.55,0,0,0,1.77.76,7.8,7.8,0,0,1,3.15,1.61,3.22,3.22,0,0,1,1,2.4,3,3,0,0,1-1.21,2.5,5.25,5.25,0,0,1-3.25.91,6.23,6.23,0,0,1-2.58-.52,4.13,4.13,0,0,1-1.78-1.42,3.69,3.69,0,0,1-.61-2.09h2.54c0,1.35.81,2,2.43,2a2.34,2.34,0,0,0,1.41-.37A1.18,1.18,0,0,0,80,81.32Z" style="fill:#fff"/><path d="M35.13,74.31H31.37V84.54H28.84V74.31H25.13v-2h10Z" style="fill:#fff"/><path d="M83,128.45a4.37,4.37,0,0,1-1.47,3.12A5.14,5.14,0,0,1,78,132.71a4.61,4.61,0,0,1-3.71-1.59A6.5,6.5,0,0,1,73,126.75V126a7.3,7.3,0,0,1,.63-3.12,4.64,4.64,0,0,1,1.78-2.07,5.58,5.58,0,0,1,6.12.42A4.65,4.65,0,0,1,83,124.42H80.45a2.53,2.53,0,0,0-.66-1.72,2.44,2.44,0,0,0-1.73-.54,2.14,2.14,0,0,0-1.9.91,5,5,0,0,0-.64,2.81v.93a5.45,5.45,0,0,0,.6,2.91,2.12,2.12,0,0,0,1.9.92,2.51,2.51,0,0,0,1.75-.53,2.43,2.43,0,0,0,.67-1.66Z" style="fill:#fff"/><path d="M120.83,130.51h5.37v2h-7.9V120.25h2.53Z" style="fill:#fff"/><path d="M30,128H28v4.5H25.46V120.25H30a5.16,5.16,0,0,1,3.36,1A3.36,3.36,0,0,1,34.57,124a3.45,3.45,0,0,1-2.2,3.43l2.66,5v.12H32.32Zm-2-2h2a2.08,2.08,0,0,0,1.47-.48,1.75,1.75,0,0,0,.53-1.34,1.86,1.86,0,0,0-.5-1.37,2,2,0,0,0-1.51-.49H28Z" style="fill:#fff"/><path d="M77.89,172.49l2.3-4.24H83.1l-3.58,6.1,3.67,6.19H80.25l-2.36-4.3-2.37,4.3H72.58l3.67-6.19-3.58-6.1h2.91Z" style="fill:#fff"/><path d="M29.34,175.61,28,177v3.51H25.49V168.25H28v5.57l1.12-1.52,3.13-4.05h3.11L31,173.71l4.49,6.83h-3Z" style="fill:#fff"/><path d="M28.43,245.34a1.24,1.24,0,0,1,.4-.94,1.53,1.53,0,0,1,2,0,1.23,1.23,0,0,1,.39.94,1.21,1.21,0,0,1-.39.94,1.42,1.42,0,0,1-1,.35,1.44,1.44,0,0,1-1-.35A1.21,1.21,0,0,1,28.43,245.34Z" style="fill:#fff"/><path d="M82.87,246.54H80.34v-5.26H75.4v5.26H72.87V234.26H75.4v5h4.94v-5h2.53Z" style="fill:#fff"/></svg>