<svg xmlns="http://www.w3.org/2000/svg" viewBox="0 0 320 288"><title>Pemek-1</title><rect width="320" height="288" style="fill:none"/><line x1="276.29" y1="40" x2="209.62" y2="40" style="fill:none;stroke:#333;stroke-miterlimit:10;stroke-width:5px"/><line x1="276.29" y1="136" x2="209.62" y2="136" style="fill:none;stroke:#333;stroke-miterlimit:10;stroke-width:5px"/><line x1="312" y1="40" x2="310.56" y2="40" style="fill:none;stroke:#333;stroke-miterlimit:10;stroke-width:5px"/><line x1="307.58" y1="40" x2="279.22" y2="40" style="fill:none;stroke:#333;stroke-miterlimit:10;stroke-width:5px;stroke-dasharray:2.9849350452423096,2.9849350452423096"/><line x1="277.73" y1="40" x2="276.29" y2="40" style="fill:none;stroke:#333;stroke-miterlimit:10;stroke-width:5px"/><line x1="312" y1="136" x2="310.56" y2="136" style="fill:none;stroke:#333;stroke-miterlimit:10;stroke-width:5px"/><line x1="307.58" y1="136" x2="279.22" y2="136" style="fill:none;stroke:#333;stroke-miterlimit:10;stroke-width:5px;stroke-dasharray:2.9849350452423096,2.9849350452423096"/><line x1="277.73" y1="136" x2="276.29" y2="136" style="fill:none;stroke:#333;stroke-miterlimit:10;stroke-width:5px"/><path d="M180,12a28,28,0,0,0-26.84,20H114.84C111.4,20.43,104,12,88,12H40A27.67,27.67,0,0,0,12,40V184a28,28,0,0,0,20,26.84v12.32A28,28,0,0,0,12,250a27.67,27.67,0,0,0,28,28H152a27.67,27.67,0,0,0,28-28V212a27.84,27.84,0,0,0,27.8-28L208,40A28,28,0,0,0,180,12Z" style="fill:#fff;stroke:#333;stroke-miterlimit:10;stroke-width:3px"/><circle cx="244.38" cy="40" r="20" style="fill:#fff;stroke:#333;stroke-miterlimit:10;stroke-width:3px"/><path d="M244.38,68a20,20,0,0,0-20,20h0v96c0,12,9,20,20,20s20-8,20-20V88h0A20,20,0,0,0,244.38,68Z" style="fill:#fff;stroke:#333;stroke-miterlimit:10;stroke-width:3px"/><line x1="88.38" y1="250" x2="120.38" y2="218" style="fill:none;stroke:#333;stroke-linecap:round;stroke-miterlimit:10;stroke-width:2px"/><circle cx="180.38" cy="40" r="20" style="fill:#fff;stroke:#333;stroke-miterlimit:10;stroke-width:2px"/><path d="M180.38,68a20,20,0,0,0-20,20h0v96c0,12,9,20,20,20s20-8,20-20V88h0A20,20,0,0,0,180.38,68Z" style="fill:#fff;stroke:#333;stroke-miterlimit:10;stroke-width:2px"/><path d="M68.38,250h0a20,20,0,1,0,20-20V204c11.05,0,20-8,20-20V88c0-12-8.95-20-20-20V60a20,20,0,1,0-20-20h-8a20,20,0,1,0-20,20v8c-11,0-20,8-20,20v96c0,12,9,20,20,20v26A20,20,0,1,0,41,270c10.76-.29,19.39-8.21,19.39-20Z" style="fill:#fff;stroke:#333;stroke-miterlimit:10;stroke-width:2px"/><line x1="88.38" y1="250" x2="72.38" y2="234" style="fill:none;stroke:#333;stroke-linecap:round;stroke-miterlimit:10;stroke-width:2px"/><path d="M40.38,100v16a20,20,0,0,1,0,40v16" style="fill:#fff;stroke:#333;stroke-linecap:square;stroke-miterlimit:10;stroke-width:2px"/><line x1="52.48" y1="136" x2="59.62" y2="136" style="fill:none;stroke:#333;stroke-linejoin:round;stroke-width:2px"/><line x1="108.38" y1="136" x2="120.38" y2="136" style="fill:none;stroke:#333;stroke-linejoin:round;stroke-width:2px"/><line x1="64.38" y1="20" x2="64.38" y2="12" style="fill:none;stroke:#333;stroke-linecap:square;stroke-miterlimit:10;stroke-width:2px"/><line x1="88.38" y1="100" x2="88.38" y2="172" style="fill:none;stroke:#333;stroke-linecap:square;stroke-miterlimit:10;stroke-width:2px"/><line x1="180.38" y1="80" x2="180.38" y2="192" style="fill:none;stroke:#333;stroke-linecap:round;stroke-miterlimit:10;stroke-width:2px"/><line x1="132.38" y1="80" x2="132.38" y2="192" style="fill:none;stroke:#333;stroke-linecap:round;stroke-miterlimit:10;stroke-width:2px"/><line x1="180.38" y1="68" x2="180.38" y2="60" style="fill:none;stroke:#333;stroke-miterlimit:10;stroke-width:2px"/><line x1="244.38" y1="80" x2="244.38" y2="192" style="fill:none;stroke:#333;stroke-linecap:round;stroke-miterlimit:10;stroke-width:2px"/><line x1="244.38" y1="68" x2="244.38" y2="60" style="fill:none;stroke:#333;stroke-miterlimit:10;stroke-width:2px"/><line x1="152.48" y1="136" x2="142.95" y2="136" style="fill:none;stroke:#333;stroke-miterlimit:10;stroke-width:5.714285714285714px"/><line x1="152.38" y1="128" x2="152.38" y2="144" style="fill:none;stroke:#333;stroke-linecap:round;stroke-miterlimit:10"/><circle cx="132.38" cy="136" r="12" style="fill:#333;stroke:#333;stroke-miterlimit:10;stroke-width:1.9199999999999997px"/><circle cx="40.67" cy="40" r="12" style="fill:#333;stroke:#333;stroke-miterlimit:10;stroke-width:1.9199999999999997px"/><circle cx="40.67" cy="88" r="12" style="fill:#333;stroke:#333;stroke-miterlimit:10;stroke-width:1.9199999999999997px"/><circle cx="40.67" cy="136" r="12" style="fill:#333;stroke:#333;stroke-miterlimit:10;stroke-width:1.9199999999999997px"/><circle cx="40.67" cy="184" r="12" style="fill:#333;stroke:#333;stroke-miterlimit:10;stroke-width:1.9199999999999997px"/><circle cx="40.67" cy="250" r="12" style="fill:#333;stroke:#333;stroke-miterlimit:10;stroke-width:1.9199999999999997px"/><circle cx="88.38" cy="250" r="12" style="fill:#333;stroke:#333;stroke-miterlimit:10;stroke-width:1.9199999999999997px"/><circle cx="88.38" cy="184" r="12" style="fill:#333;stroke:#333;stroke-miterlimit:10;stroke-width:1.9199999999999997px"/><circle cx="88.38" cy="40" r="12" style="fill:#333;stroke:#333;stroke-miterlimit:10;stroke-width:1.9199999999999997px"/><circle cx="88.38" cy="88" r="12" style="fill:#333;stroke:#333;stroke-miterlimit:10;stroke-width:1.9199999999999997px"/><circle cx="88.38" cy="136" r="12" style="fill:#333;stroke:#333;stroke-miterlimit:10;stroke-width:1.9199999999999997px"/><circle cx="180.38" cy="40" r="12" style="fill:#333;stroke:#333;stroke-miterlimit:10;stroke-width:1.9199999999999997px"/><circle cx="180.38" cy="136" r="12" style="fill:#333;stroke:#333;stroke-miterlimit:10;stroke-width:1.9199999999999997px"/><circle cx="244.38" cy="40" r="12" style="fill:#333;stroke:#333;stroke-miterlimit:10;stroke-width:1.9199999999999997px"/><circle cx="244.38" cy="136" r="12" style="fill:#333;stroke:#333;stroke-miterlimit:10;stroke-width:1.9199999999999997px"/><path d="M247.49,43.5l1.65-8.74h2.53L248.94,47h-2.55l-2-8.22-2,8.22h-2.54l-2.73-12.28h2.52l1.67,8.72,2-8.72h2.14Z" style="fill:#fff"/><path d="M244.37,136.29l2.56-5.54h2.77l-4,7.83V143h-2.57v-4.46l-4-7.83h2.77Z" style="fill:#fff"/><path d="M185.37,143h-2.53L177.91,135V143h-2.53V130.75h2.53l4.94,8.11v-8.11h2.52Z" style="fill:#fff"/><path d="M177.22,34.76l3.15,8.91,3.14-8.91h3.33V47H184.3V43.68l.25-5.79L181.23,47H179.5l-3.31-9.15.25,5.79V47h-2.53V34.76Z" style="fill:#fff"/><path d="M92.14,42H87.28v5H84.74V34.76h8v2.05H87.28V40h4.86Z" style="fill:#fff"/><path d="M38.44,42.71V47H35.9V34.76h4.8a5.5,5.5,0,0,1,2.43.5,3.79,3.79,0,0,1,1.62,1.44,4.07,4.07,0,0,1,.56,2.12,3.53,3.53,0,0,1-1.23,2.85,5.14,5.14,0,0,1-3.42,1Zm0-2.05H40.7a2.24,2.24,0,0,0,1.53-.47,1.73,1.73,0,0,0,.53-1.35,2,2,0,0,0-.54-1.46,2,2,0,0,0-1.46-.57H38.44Z" style="fill:#fff"/><path d="M90.54,91.82a1.28,1.28,0,0,0-.51-1.1,6.52,6.52,0,0,0-1.82-.81,14.45,14.45,0,0,1-2.09-.84A3.42,3.42,0,0,1,84,86a3,3,0,0,1,.56-1.77A3.6,3.6,0,0,1,86.2,83a6,6,0,0,1,2.36-.44,5.67,5.67,0,0,1,2.35.47,3.8,3.8,0,0,1,1.6,1.35,3.52,3.52,0,0,1,.57,2H90.54A1.63,1.63,0,0,0,90,85.07a2.18,2.18,0,0,0-1.49-.47,2.26,2.26,0,0,0-1.44.4,1.21,1.21,0,0,0-.52,1,1.17,1.17,0,0,0,.61,1,6.55,6.55,0,0,0,1.77.76,7.8,7.8,0,0,1,3.15,1.61,3.22,3.22,0,0,1,1,2.4,3,3,0,0,1-1.21,2.5,5.25,5.25,0,0,1-3.25.91A6.23,6.23,0,0,1,86,94.69a4.13,4.13,0,0,1-1.78-1.42,3.69,3.69,0,0,1-.61-2.09h2.54c0,1.35.81,2,2.43,2A2.34,2.34,0,0,0,90,92.84,1.18,1.18,0,0,0,90.54,91.82Z" style="fill:#fff"/><path d="M45.63,84.81H41.87V95H39.34V84.81H35.63v-2h10Z" style="fill:#fff"/><path d="M93.47,139A4.37,4.37,0,0,1,92,142.07a5.14,5.14,0,0,1-3.48,1.14,4.61,4.61,0,0,1-3.71-1.59,6.5,6.5,0,0,1-1.36-4.37v-.75a7.3,7.3,0,0,1,.63-3.12,4.64,4.64,0,0,1,1.78-2.07,5.58,5.58,0,0,1,6.12.42,4.65,4.65,0,0,1,1.51,3.19H91a2.53,2.53,0,0,0-.66-1.72,2.44,2.44,0,0,0-1.73-.54,2.14,2.14,0,0,0-1.9.91,5,5,0,0,0-.64,2.81v.93a5.45,5.45,0,0,0,.6,2.91,2.12,2.12,0,0,0,1.9.92,2.51,2.51,0,0,0,1.75-.53,2.43,2.43,0,0,0,.67-1.66Z" style="fill:#fff"/><path d="M131.33,141h5.37v2h-7.9V130.75h2.53Z" style="fill:#fff"/><path d="M40.51,138.54h-2V143H36V130.75h4.57a5.16,5.16,0,0,1,3.36,1,3.36,3.36,0,0,1,1.18,2.74,3.45,3.45,0,0,1-2.2,3.43l2.66,5V143H42.82Zm-2-2h2A2.08,2.08,0,0,0,42,136a1.75,1.75,0,0,0,.53-1.34,1.86,1.86,0,0,0-.5-1.37,2,2,0,0,0-1.51-.49h-2Z" style="fill:#fff"/><path d="M88.39,183l2.3-4.24H93.6L90,184.85,93.69,191H90.75l-2.36-4.3L86,191H83.08l3.67-6.19-3.58-6.1h2.91Z" style="fill:#fff"/><path d="M39.84,186.11l-1.32,1.42V191H36V178.75h2.53v5.57l1.12-1.52,3.13-4.05h3.11l-4.36,5.46L46,191H43Z" style="fill:#fff"/><path d="M38.93,255.84a1.24,1.24,0,0,1,.4-.94,1.53,1.53,0,0,1,2,0,1.23,1.23,0,0,1,.39.94,1.21,1.21,0,0,1-.39.94,1.42,1.42,0,0,1-1,.35,1.44,1.44,0,0,1-1-.35A1.21,1.21,0,0,1,38.93,255.84Z" style="fill:#fff"/><path d="M93.37,257H90.84v-5.26H85.9V257H83.37V244.76H85.9v5h4.94v-5h2.53Z" style="fill:#fff"/></svg>