<svg xmlns="http://www.w3.org/2000/svg" width="302.38" height="270.76" viewBox="0 0 302.38 270.76"><title>Pemek-1</title><line x1="266.67" y1="30.38" x2="200" y2="30.38" style="fill:none;stroke:#333;stroke-miterlimit:10;stroke-width:5.714285714285714px"/><line x1="266.67" y1="126.38" x2="200" y2="126.38" style="fill:none;stroke:#333;stroke-miterlimit:10;stroke-width:5.714285714285714px"/><line x1="302.38" y1="30.38" x2="300.94" y2="30.38" style="fill:none;stroke:#333;stroke-miterlimit:10;stroke-width:5.714285714285714px"/><line x1="297.96" y1="30.38" x2="269.6" y2="30.38" style="fill:none;stroke:#333;stroke-miterlimit:10;stroke-width:5.714285714285714px;stroke-dasharray:2.9849350452423096,2.9849350452423096"/><line x1="268.11" y1="30.38" x2="266.67" y2="30.38" style="fill:none;stroke:#333;stroke-miterlimit:10;stroke-width:5.714285714285714px"/><line x1="302.38" y1="126.38" x2="300.94" y2="126.38" style="fill:none;stroke:#333;stroke-miterlimit:10;stroke-width:5.714285714285714px"/><line x1="297.96" y1="126.38" x2="269.6" y2="126.38" style="fill:none;stroke:#333;stroke-miterlimit:10;stroke-width:5.714285714285714px;stroke-dasharray:2.9849350452423096,2.9849350452423096"/><line x1="268.11" y1="126.38" x2="266.67" y2="126.38" style="fill:none;stroke:#333;stroke-miterlimit:10;stroke-width:5.714285714285714px"/><polygon points="105.22 182.38 105.22 182.38 105.22 182.38 105.22 182.38" style="fill:#fff"/><polyline points="105.22 182.38 105.22 182.38 105.22 182.38 105.22 182.38" style="fill:#333"/><path d="M30.38,269.57A28.88,28.88,0,0,1,1.19,240.38a29.37,29.37,0,0,1,20-27.71V202.09a29.37,29.37,0,0,1-20-27.71v-144A28.88,28.88,0,0,1,30.38,1.19h48c14.35,0,23.43,6.55,27.72,20h36.57a29.19,29.19,0,0,1,56.9,9.19l-.2,144a29.13,29.13,0,0,1-27.8,29.17v36.83a28.88,28.88,0,0,1-29.19,29.19Z" style="fill:#fff"/><path d="M170.38,2.38a28,28,0,0,1,28,28l-.2,144a27.84,27.84,0,0,1-27.8,28v38a27.67,27.67,0,0,1-28,28h-112a27.67,27.67,0,0,1-28-28,28,28,0,0,1,20-26.84V201.22a28,28,0,0,1-20-26.84v-144a27.67,27.67,0,0,1,28-28h48c16,0,23.4,8.44,26.84,20h38.32a28,28,0,0,1,26.84-20m-65.16,180h0M170.38,0a30.59,30.59,0,0,0-28.56,20H107C102.39,6.55,93,0,78.38,0h-48A30.05,30.05,0,0,0,0,30.38v144a30.59,30.59,0,0,0,20,28.56v8.88A30.59,30.59,0,0,0,0,240.38a30.05,30.05,0,0,0,30.38,30.38h112a30.05,30.05,0,0,0,30.38-30.38V204.67a30.34,30.34,0,0,0,27.8-30.29l.2-144A30.42,30.42,0,0,0,170.38,0Z" style="fill:#333"/><circle cx="234.76" cy="30.38" r="20" style="fill:#fff;stroke:#333;stroke-miterlimit:10;stroke-width:2.380952380952381px"/><path d="M234.76,58.38a20,20,0,0,0-20,20h0v96c0,12,9,20,20,20s20-8,20-20v-96h0A20,20,0,0,0,234.76,58.38Z" style="fill:#fff;stroke:#333;stroke-miterlimit:10;stroke-width:2.380952380952381px"/><line x1="78.76" y1="240.38" x2="110.76" y2="208.38" style="fill:none;stroke:#333;stroke-linecap:round;stroke-miterlimit:10;stroke-width:2.88px"/><circle cx="170.76" cy="30.38" r="20" style="fill:#fff;stroke:#333;stroke-miterlimit:10;stroke-width:1.9047619047619049px"/><path d="M170.76,58.38a20,20,0,0,0-20,20h0v96c0,12,9,20,20,20s20-8,20-20v-96h0A20,20,0,0,0,170.76,58.38Z" style="fill:#fff;stroke:#333;stroke-miterlimit:10;stroke-width:1.9047619047619049px"/><line x1="78.76" y1="240.38" x2="62.76" y2="224.38" style="fill:none;stroke:#333;stroke-linecap:round;stroke-miterlimit:10;stroke-width:2.88px"/><path d="M30.76,90.38v16a20,20,0,0,1,0,40v16" style="fill:#fff;stroke:#333;stroke-linecap:square;stroke-miterlimit:10;stroke-width:2.380952380952381px"/><line x1="42.86" y1="126.38" x2="50" y2="126.38" style="fill:none;stroke:#333;stroke-linejoin:round;stroke-width:2.380952380952381px"/><line x1="98.76" y1="126.38" x2="110.76" y2="126.38" style="fill:none;stroke:#333;stroke-linejoin:round;stroke-width:2.380952380952381px"/><line x1="54.76" y1="10.38" x2="54.76" y2="2.38" style="fill:none;stroke:#333;stroke-linecap:square;stroke-miterlimit:10;stroke-width:2.380952380952381px"/><line x1="78.76" y1="90.38" x2="78.76" y2="162.38" style="fill:none;stroke:#333;stroke-linecap:square;stroke-miterlimit:10;stroke-width:2.380952380952381px"/><line x1="170.76" y1="70.38" x2="170.76" y2="182.38" style="fill:none;stroke:#333;stroke-linecap:round;stroke-miterlimit:10;stroke-width:2.380952380952381px"/><line x1="122.76" y1="70.38" x2="122.76" y2="182.38" style="fill:none;stroke:#333;stroke-linecap:round;stroke-miterlimit:10;stroke-width:2.380952380952381px"/><line x1="170.76" y1="58.38" x2="170.76" y2="50.38" style="fill:none;stroke:#333;stroke-miterlimit:10;stroke-width:2.380952380952381px"/><line x1="234.76" y1="70.38" x2="234.76" y2="182.38" style="fill:none;stroke:#333;stroke-linecap:round;stroke-miterlimit:10;stroke-width:2.380952380952381px"/><line x1="234.76" y1="58.38" x2="234.76" y2="50.38" style="fill:none;stroke:#333;stroke-miterlimit:10;stroke-width:2.380952380952381px"/><line x1="142.86" y1="126.38" x2="133.33" y2="126.38" style="fill:none;stroke:#333;stroke-miterlimit:10;stroke-width:5.714285714285714px"/><line x1="142.76" y1="118.38" x2="142.76" y2="134.38" style="fill:none;stroke:#333;stroke-linecap:round;stroke-miterlimit:10;stroke-width:1.1904761904761905px"/><circle cx="122.76" cy="126.38" r="12" style="fill:#333;stroke:#333;stroke-miterlimit:10;stroke-width:1.9199999999999997px"/><circle cx="31.05" cy="30.38" r="12" style="fill:#333;stroke:#333;stroke-miterlimit:10;stroke-width:1.9199999999999997px"/><circle cx="31.05" cy="78.38" r="12" style="fill:#333;stroke:#333;stroke-miterlimit:10;stroke-width:1.9199999999999997px"/><circle cx="31.05" cy="126.38" r="12" style="fill:#333;stroke:#333;stroke-miterlimit:10;stroke-width:1.9199999999999997px"/><circle cx="31.05" cy="174.38" r="12" style="fill:#333;stroke:#333;stroke-miterlimit:10;stroke-width:1.9199999999999997px"/><circle cx="31.05" cy="240.38" r="12" style="fill:#333;stroke:#333;stroke-miterlimit:10;stroke-width:1.9199999999999997px"/><circle cx="78.76" cy="240.38" r="12" style="fill:#333;stroke:#333;stroke-miterlimit:10;stroke-width:1.9199999999999997px"/><circle cx="78.76" cy="174.38" r="12" style="fill:#333;stroke:#333;stroke-miterlimit:10;stroke-width:1.9199999999999997px"/><circle cx="78.76" cy="30.38" r="12" style="fill:#333;stroke:#333;stroke-miterlimit:10;stroke-width:1.9199999999999997px"/><circle cx="78.76" cy="78.38" r="12" style="fill:#333;stroke:#333;stroke-miterlimit:10;stroke-width:1.9199999999999997px"/><circle cx="78.76" cy="126.38" r="12" style="fill:#333;stroke:#333;stroke-miterlimit:10;stroke-width:1.9199999999999997px"/><circle cx="170.76" cy="30.38" r="12" style="fill:#333;stroke:#333;stroke-miterlimit:10;stroke-width:1.9199999999999997px"/><circle cx="170.76" cy="126.38" r="12" style="fill:#333;stroke:#333;stroke-miterlimit:10;stroke-width:1.9199999999999997px"/><circle cx="234.76" cy="30.38" r="12" style="fill:#333;stroke:#333;stroke-miterlimit:10;stroke-width:1.9199999999999997px"/><circle cx="234.76" cy="126.38" r="12" style="fill:#333;stroke:#333;stroke-miterlimit:10;stroke-width:1.9199999999999997px"/><path d="M237.87,33.88l1.66-8.74h2.52l-2.73,12.28h-2.54l-2-8.22-2,8.22h-2.55L227.5,25.14H230l1.66,8.72,2-8.72h2.15Z" style="fill:#fff"/><path d="M234.75,126.67l2.56-5.53h2.77l-4,7.83v4.45h-2.58V129l-4-7.83h2.77Z" style="fill:#fff"/><path d="M175.75,133.42h-2.53l-4.93-8.08v8.08h-2.53V121.14h2.53l4.94,8.1v-8.1h2.52Z" style="fill:#fff"/><path d="M167.6,25.14l3.15,8.91,3.14-8.91h3.33V37.42h-2.54V34.06l.25-5.79-3.31,9.15h-1.74l-3.31-9.14.25,5.78v3.36h-2.53V25.14Z" style="fill:#fff"/><path d="M82.52,32.4H77.66v5H75.13V25.14h8v2.05H77.66v3.17h4.86Z" style="fill:#fff"/><path d="M28.82,33.09v4.33H26.29V25.14h4.79a5.64,5.64,0,0,1,2.43.5,3.79,3.79,0,0,1,1.62,1.44,4,4,0,0,1,.56,2.12,3.53,3.53,0,0,1-1.23,2.85,5.14,5.14,0,0,1-3.42,1Zm0-2.05h2.26a2.19,2.19,0,0,0,1.53-.47,1.71,1.71,0,0,0,.53-1.35,2,2,0,0,0-.53-1.46,2,2,0,0,0-1.47-.57H28.82Z" style="fill:#fff"/><path d="M80.92,82.2a1.28,1.28,0,0,0-.51-1.1,6.38,6.38,0,0,0-1.82-.81,13.81,13.81,0,0,1-2.08-.84,3.41,3.41,0,0,1-2.1-3A3,3,0,0,1,75,74.63a3.65,3.65,0,0,1,1.62-1.22A5.9,5.9,0,0,1,78.94,73a5.51,5.51,0,0,1,2.35.48,3.71,3.71,0,0,1,1.6,1.34,3.52,3.52,0,0,1,.57,2H80.93a1.65,1.65,0,0,0-.54-1.31A2.18,2.18,0,0,0,78.9,75a2.33,2.33,0,0,0-1.44.4,1.24,1.24,0,0,0-.52,1,1.2,1.2,0,0,0,.61,1,6.92,6.92,0,0,0,1.77.75,7.68,7.68,0,0,1,3.15,1.62,3.2,3.2,0,0,1,1,2.39,3,3,0,0,1-1.21,2.5,5.25,5.25,0,0,1-3.25.91,6.23,6.23,0,0,1-2.58-.52,4.06,4.06,0,0,1-1.78-1.42A3.69,3.69,0,0,1,74,81.56h2.54c0,1.35.81,2,2.43,2a2.34,2.34,0,0,0,1.41-.37A1.18,1.18,0,0,0,80.92,82.2Z" style="fill:#fff"/><path d="M36,75.19H32.25V85.42H29.72V75.19H26v-2H36Z" style="fill:#fff"/><path d="M83.85,129.33a4.36,4.36,0,0,1-1.46,3.12,5.15,5.15,0,0,1-3.48,1.14A4.62,4.62,0,0,1,75.19,132a6.55,6.55,0,0,1-1.36-4.37v-.75a7.3,7.3,0,0,1,.63-3.12,4.71,4.71,0,0,1,1.78-2.07,5,5,0,0,1,2.7-.72,5,5,0,0,1,3.42,1.14,4.67,4.67,0,0,1,1.51,3.19H81.34a2.6,2.6,0,0,0-.67-1.72,2.44,2.44,0,0,0-1.73-.54,2.12,2.12,0,0,0-1.89.91,5,5,0,0,0-.65,2.81v.93a5.45,5.45,0,0,0,.6,2.91,2.1,2.1,0,0,0,1.91.92,2.54,2.54,0,0,0,1.75-.53,2.47,2.47,0,0,0,.66-1.66Z" style="fill:#fff"/><path d="M121.71,131.39h5.37v2h-7.9V121.14h2.53Z" style="fill:#fff"/><path d="M30.89,128.92h-2v4.5H26.34V121.14h4.57a5.15,5.15,0,0,1,3.36,1,3.33,3.33,0,0,1,1.18,2.74,3.44,3.44,0,0,1-2.19,3.43l2.65,5v.12H33.2Zm-2-2h2a2.08,2.08,0,0,0,1.47-.48,1.75,1.75,0,0,0,.53-1.34,1.88,1.88,0,0,0-.5-1.37,2,2,0,0,0-1.51-.49h-2Z" style="fill:#fff"/><path d="M78.77,173.37l2.3-4.24H84l-3.58,6.1,3.67,6.19H81.13l-2.36-4.3-2.37,4.3H73.46l3.67-6.19-3.58-6.1h2.91Z" style="fill:#fff"/><path d="M30.22,176.49l-1.31,1.42v3.51H26.37V169.13h2.54v5.57L30,173.18l3.13-4.05h3.11l-4.36,5.46,4.49,6.83h-3Z" style="fill:#fff"/><path d="M29.32,246.22a1.23,1.23,0,0,1,.39-.94,1.53,1.53,0,0,1,2,0,1.23,1.23,0,0,1,.39.94,1.24,1.24,0,0,1-.38.94,1.59,1.59,0,0,1-2,0A1.21,1.21,0,0,1,29.32,246.22Z" style="fill:#fff"/><path d="M83.75,247.42H81.22v-5.26H76.29v5.26H73.75V235.14h2.54v5h4.93v-5h2.53Z" style="fill:#fff"/></svg>