<svg xmlns="http://www.w3.org/2000/svg" width="292.32" height="245.28" viewBox="0 0 292.32 245.28"><title>Pemek-1</title><polygon points="96.47 161.28 96.47 161.28 96.47 161.28 96.47 161.28" style="fill:#fff"/><polyline points="96.47 161.28 96.47 161.28 96.47 161.28 96.47 161.28" style="fill:#333"/><path d="M33.6,236.81A24.86,24.86,0,0,1,8.47,211.68,25.3,25.3,0,0,1,25.27,188v-9.68a25.3,25.3,0,0,1-16.8-23.72V33.6A24.86,24.86,0,0,1,33.6,8.47H73.92c12.21,0,20,5.5,23.73,16.8h29.83a25.14,25.14,0,0,1,48.85,8.33l-.16,121a25.1,25.1,0,0,1-23.36,25.08v32a24.86,24.86,0,0,1-25.13,25.13Z" style="fill:#fff"/><path d="M151.2,10.08A23.52,23.52,0,0,1,174.72,33.6l-.17,121a23.38,23.38,0,0,1-23.35,23.52v33.6a23.24,23.24,0,0,1-23.52,23.52H33.6a23.24,23.24,0,0,1-23.52-23.52,23.54,23.54,0,0,1,16.8-22.55v-12a23.54,23.54,0,0,1-16.8-22.55V33.6A23.24,23.24,0,0,1,33.6,10.08H73.92c13.44,0,19.65,7.08,22.55,16.8h32.18a23.54,23.54,0,0,1,22.55-16.8M96.47,161.28h0M151.2,6.85a26.93,26.93,0,0,0-24.83,16.8H98.79C94.69,12.5,86.33,6.85,73.92,6.85H33.6A26.47,26.47,0,0,0,6.85,33.6v121a26.93,26.93,0,0,0,16.8,24.83v7.46a26.93,26.93,0,0,0-16.8,24.83A26.47,26.47,0,0,0,33.6,238.43h94.08a26.47,26.47,0,0,0,26.75-26.75V181.11a26.73,26.73,0,0,0,23.35-26.55l.17-121A26.78,26.78,0,0,0,151.2,6.85Z" style="fill:#333"/><line x1="246.25" y1="33.6" x2="221.76" y2="33.6" style="fill:none;stroke:#333;stroke-miterlimit:10;stroke-width:4.8384px"/><line x1="188.16" y1="33.6" x2="174.72" y2="33.6" style="fill:none;stroke:#333;stroke-miterlimit:10;stroke-width:4.8384px"/><line x1="188.16" y1="114.24" x2="174.72" y2="114.24" style="fill:none;stroke:#333;stroke-miterlimit:10;stroke-width:4.8384px"/><line x1="246.25" y1="114.24" x2="221.76" y2="114.24" style="fill:none;stroke:#333;stroke-miterlimit:10;stroke-width:4.8384px"/><line x1="286.57" y1="33.6" x2="285.36" y2="33.6" style="fill:none;stroke:#333;stroke-miterlimit:10;stroke-width:4.8384px"/><line x1="282.84" y1="33.6" x2="248.73" y2="33.6" style="fill:none;stroke:#333;stroke-miterlimit:10;stroke-width:4.8384px;stroke-dasharray:2.5267200469970703,2.5267200469970703"/><line x1="247.46" y1="33.6" x2="246.25" y2="33.6" style="fill:none;stroke:#333;stroke-miterlimit:10;stroke-width:4.8384px"/><line x1="286.57" y1="114.24" x2="285.36" y2="114.24" style="fill:none;stroke:#333;stroke-miterlimit:10;stroke-width:4.8384px"/><line x1="282.84" y1="114.24" x2="248.73" y2="114.24" style="fill:none;stroke:#333;stroke-miterlimit:10;stroke-width:4.8384px;stroke-dasharray:2.5267200469970703,2.5267200469970703"/><line x1="247.46" y1="114.24" x2="246.25" y2="114.24" style="fill:none;stroke:#333;stroke-miterlimit:10;stroke-width:4.8384px"/><rect width="292.32" height="245.28" style="fill:none"/><line x1="73.92" y1="211.68" x2="100.8" y2="184.8" style="fill:none;stroke:#333;stroke-linecap:round;stroke-miterlimit:10;stroke-width:2.4192px"/><path d="M33.6,84V97.44a16.8,16.8,0,1,1,0,33.6v13.44" style="fill:#fff;stroke:#333;stroke-linecap:square;stroke-miterlimit:10;stroke-width:1.6127999999999998px"/><line x1="43.68" y1="114.24" x2="50.4" y2="114.24" style="fill:none;stroke:#333;stroke-linejoin:round;stroke-width:1.6127999999999998px"/><line x1="90.72" y1="114.24" x2="100.8" y2="114.24" style="fill:none;stroke:#333;stroke-linecap:square;stroke-linejoin:round;stroke-width:1.6127999999999998px"/><line x1="53.76" y1="16.8" x2="53.76" y2="10.08" style="fill:none;stroke:#333;stroke-linecap:square;stroke-miterlimit:10;stroke-width:1.6127999999999998px"/><line x1="73.92" y1="84" x2="73.92" y2="144.48" style="fill:none;stroke:#333;stroke-linecap:square;stroke-miterlimit:10;stroke-width:1.6127999999999998px"/><line x1="73.92" y1="211.68" x2="60.48" y2="198.24" style="fill:none;stroke:#333;stroke-linecap:round;stroke-miterlimit:10;stroke-width:2.4192px"/><circle cx="110.88" cy="114.24" r="10.08" style="fill:#333;stroke:#333;stroke-miterlimit:10;stroke-width:1.6127999999999998px"/><circle cx="33.6" cy="33.6" r="10.08" style="fill:#333;stroke:#333;stroke-miterlimit:10;stroke-width:1.6127999999999998px"/><circle cx="33.6" cy="73.92" r="10.08" style="fill:#333;stroke:#333;stroke-miterlimit:10;stroke-width:1.6127999999999998px"/><circle cx="33.6" cy="114.24" r="10.08" style="fill:#333;stroke:#333;stroke-miterlimit:10;stroke-width:1.6127999999999998px"/><circle cx="33.6" cy="154.56" r="10.08" style="fill:#333;stroke:#333;stroke-miterlimit:10;stroke-width:1.6127999999999998px"/><circle cx="33.6" cy="211.68" r="10.08" style="fill:#333;stroke:#333;stroke-miterlimit:10;stroke-width:1.6127999999999998px"/><circle cx="73.92" cy="211.68" r="10.08" style="fill:#333;stroke:#333;stroke-miterlimit:10;stroke-width:1.6127999999999998px"/><circle cx="73.92" cy="154.56" r="10.08" style="fill:#333;stroke:#333;stroke-miterlimit:10;stroke-width:1.6127999999999998px"/><circle cx="73.92" cy="33.6" r="10.08" style="fill:#333;stroke:#333;stroke-miterlimit:10;stroke-width:1.6127999999999998px"/><circle cx="73.92" cy="73.92" r="10.08" style="fill:#333;stroke:#333;stroke-miterlimit:10;stroke-width:1.6127999999999998px"/><circle cx="73.92" cy="114.24" r="10.08" style="fill:#333;stroke:#333;stroke-miterlimit:10;stroke-width:1.6127999999999998px"/><circle cx="151.2" cy="33.6" r="16.8" style="fill:#fff;stroke:#333;stroke-miterlimit:10;stroke-width:1.6127999999999998px"/><path d="M151.2,57.12a16.8,16.8,0,0,0-16.8,16.8h0v80.64c0,10.08,7.52,16.8,16.8,16.8s16.8-6.72,16.8-16.8V73.92h0A16.8,16.8,0,0,0,151.2,57.12Z" style="fill:#fff;stroke:#333;stroke-miterlimit:10;stroke-width:1.6127999999999998px"/><line x1="151.2" y1="67.2" x2="151.2" y2="161.28" style="fill:none;stroke:#333;stroke-linecap:round;stroke-miterlimit:10;stroke-width:1.6127999999999998px"/><line x1="110.88" y1="67.2" x2="110.88" y2="161.28" style="fill:none;stroke:#333;stroke-linecap:round;stroke-miterlimit:10;stroke-width:1.6127999999999998px"/><circle cx="151.2" cy="33.6" r="10.08" style="fill:#333;stroke:#333;stroke-miterlimit:10;stroke-width:1.6127999999999998px"/><circle cx="151.2" cy="114.24" r="10.08" style="fill:#333;stroke:#333;stroke-miterlimit:10;stroke-width:1.6127999999999998px"/><line x1="151.2" y1="57.12" x2="151.2" y2="50.4" style="fill:none;stroke:#333;stroke-linecap:square;stroke-miterlimit:10;stroke-width:1.6127999999999998px"/><circle cx="204.96" cy="33.6" r="16.8" style="fill:#fff;stroke:#333;stroke-miterlimit:10;stroke-width:2.4192px"/><path d="M205,57.12a16.8,16.8,0,0,0-16.8,16.8h0v80.64c0,10.08,7.52,16.8,16.8,16.8s16.8-6.72,16.8-16.8V73.92h0A16.8,16.8,0,0,0,205,57.12Z" style="fill:#fff;stroke:#333;stroke-miterlimit:10;stroke-width:2.4192px"/><line x1="204.96" y1="67.2" x2="204.96" y2="161.28" style="fill:none;stroke:#333;stroke-linecap:round;stroke-miterlimit:10;stroke-width:1.6127999999999998px"/><circle cx="204.96" cy="33.6" r="10.08" style="fill:#333;stroke:#333;stroke-miterlimit:10;stroke-width:1.6127999999999998px"/><circle cx="204.96" cy="114.24" r="10.08" style="fill:#333;stroke:#333;stroke-miterlimit:10;stroke-width:1.6127999999999998px"/><line x1="204.96" y1="57.12" x2="204.96" y2="50.4" style="fill:none;stroke:#333;stroke-linecap:square;stroke-miterlimit:10;stroke-width:1.6127999999999998px"/><line x1="128.22" y1="114.24" x2="114.24" y2="114.24" style="fill:none;stroke:#333;stroke-miterlimit:10;stroke-width:4.8384px"/><line x1="127.68" y1="107.52" x2="127.68" y2="120.96" style="fill:none;stroke:#333;stroke-linecap:round;stroke-miterlimit:10;stroke-width:1.6127999999999998px"/><path d="M207.57,36.54,209,29.2h2.12l-2.29,10.31h-2.14L205,32.61l-1.68,6.9h-2.14L198.86,29.2H201l1.4,7.32,1.7-7.32h1.8Z" style="fill:#fff"/><path d="M205,114.48l2.15-4.65h2.33L206,116.41v3.74h-2.16v-3.74l-3.39-6.58h2.33Z" style="fill:#fff"/><path d="M155.39,120.15h-2.13l-4.14-6.79v6.79H147V109.83h2.12l4.15,6.81v-6.81h2.12Z" style="fill:#fff"/><path d="M148.54,29.2l2.65,7.48,2.64-7.48h2.79V39.51h-2.13V36.69l.21-4.86-2.78,7.68h-1.46l-2.78-7.68.21,4.86v2.82h-2.13V29.2Z" style="fill:#fff"/><path d="M77.07,35.3H73v4.21H70.87V29.2h6.71v1.72H73v2.66h4.08Z" style="fill:#fff"/><path d="M32,35.88v3.63H29.84V29.2h4a4.71,4.71,0,0,1,2,.42,3.15,3.15,0,0,1,1.36,1.21,3.43,3.43,0,0,1,.47,1.78,2.93,2.93,0,0,1-1,2.39,4.28,4.28,0,0,1-2.87.88Zm0-1.72h1.9a1.87,1.87,0,0,0,1.28-.4,1.42,1.42,0,0,0,.45-1.13,1.6,1.6,0,0,0-1.68-1.71H32Z" style="fill:#fff"/><path d="M75.73,77.13a1.1,1.1,0,0,0-.42-.93,6,6,0,0,0-1.53-.68,11.23,11.23,0,0,1-1.76-.7,2.87,2.87,0,0,1-1.75-2.56,2.43,2.43,0,0,1,.47-1.49,3,3,0,0,1,1.35-1,5.21,5.21,0,0,1,2-.37,4.71,4.71,0,0,1,2,.4,3.21,3.21,0,0,1,1.35,1.13,3,3,0,0,1,.48,1.66H75.74a1.38,1.38,0,0,0-.45-1.1A1.84,1.84,0,0,0,74,71.07a1.94,1.94,0,0,0-1.21.33,1,1,0,0,0-.44.86,1,1,0,0,0,.51.85,6.15,6.15,0,0,0,1.49.64A6.46,6.46,0,0,1,77,75.1a2.71,2.71,0,0,1,.83,2,2.46,2.46,0,0,1-1,2.1,4.4,4.4,0,0,1-2.73.77A5.33,5.33,0,0,1,72,79.54a3.45,3.45,0,0,1-1.49-1.19A3.11,3.11,0,0,1,70,76.59h2.13q0,1.71,2,1.71A2.05,2.05,0,0,0,75.31,78,1,1,0,0,0,75.73,77.13Z" style="fill:#fff"/><path d="M38,71.24H34.85v8.59H32.73V71.24H29.61V69.51H38Z" style="fill:#fff"/><path d="M78.19,116.72A3.65,3.65,0,0,1,77,119.34a4.3,4.3,0,0,1-2.92,1A3.88,3.88,0,0,1,70.92,119a5.47,5.47,0,0,1-1.14-3.67v-.63a6.16,6.16,0,0,1,.53-2.62,3.93,3.93,0,0,1,1.49-1.74,4.68,4.68,0,0,1,5.15.35,4,4,0,0,1,1.26,2.68H76.08a2.17,2.17,0,0,0-.55-1.44,2.08,2.08,0,0,0-1.46-.45,1.79,1.79,0,0,0-1.59.76,4.28,4.28,0,0,0-.54,2.36v.78a4.58,4.58,0,0,0,.5,2.45,1.79,1.79,0,0,0,1.6.77,1.76,1.76,0,0,0,2-1.84Z" style="fill:#fff"/><path d="M110,118.45h4.51v1.7h-6.64V109.83H110Z" style="fill:#fff"/><path d="M33.71,116.38H32v3.77H29.89V109.83h3.83a4.35,4.35,0,0,1,2.82.82,2.79,2.79,0,0,1,1,2.3,3.2,3.2,0,0,1-.46,1.76,3.12,3.12,0,0,1-1.39,1.13l2.24,4.21v.1H35.65ZM32,114.65h1.71a1.75,1.75,0,0,0,1.24-.4,1.49,1.49,0,0,0,.44-1.13A1.6,1.6,0,0,0,35,112a1.77,1.77,0,0,0-1.28-.41H32Z" style="fill:#fff"/><path d="M73.92,153.71l1.94-3.56H78.3l-3,5.12,3.08,5.2H75.91l-2-3.61-2,3.61H69.47l3.08-5.2-3-5.12H72Z" style="fill:#fff"/><path d="M33.15,156.33,32,157.52v2.95H29.91V150.15H32v4.68l.94-1.28,2.63-3.4h2.61l-3.66,4.59,3.77,5.73H35.8Z" style="fill:#fff"/><path d="M32.38,216.59a1.08,1.08,0,0,1,.33-.8,1.19,1.19,0,0,1,.83-.3,1.18,1.18,0,0,1,.83.3,1,1,0,0,1,.33.8,1,1,0,0,1-.32.78,1.31,1.31,0,0,1-1.67,0A1,1,0,0,1,32.38,216.59Z" style="fill:#fff"/><path d="M78.11,217.59H76v-4.42H71.84v4.42H69.71V207.28h2.13v4.18H76v-4.18h2.12Z" style="fill:#fff"/></svg>